<?xml version="1.0" encoding="UTF-8"?>
<svg id="Capa_1" xmlns="http://www.w3.org/2000/svg" version="1.1" viewBox="0 0 512 512">
  <!-- Generator: Adobe Illustrator 29.8.3, SVG Export Plug-In . SVG Version: 2.1.1 Build 3)  -->
  <defs>
    <style>
      .st0 {
        stroke: #000;
        stroke-miterlimit: 10;
        stroke-width: 15px;
      }
    </style>
  </defs>
  <path class="st0" d="M208.71,68.23c26.11,1.48,55.99-2.76,81.67-.09,11.93,1.24,24.77,8.43,32.65,17.32,45.62,80.14,95.58,159.06,139.15,240.38,14.74,27.51,16.07,38.15,1,66.22-8.33,15.52-22.27,42.13-32.35,55.54-4.64,6.17-9.92,7.63-16.33,2.69-71.56-123.34-143.44-246.81-213.31-371.05-.61-4.92,3.03-9.35,7.53-11ZM230,88.98l191.5,332.33,28.99-49.89c2.72-7.22,3.77-14.31.68-21.62-47.55-84.31-95.13-168.79-144.63-251.87-2.64-2.7-12.52-8.94-16.04-8.94h-60.5Z"/>
  <path class="st0" d="M45.71,349.68h263.58s5.55,4.44,5.55,4.44l48.61,84.22c2.39,7.18-.84,14.84-8.9,14.97H117.45c-44.14-3.09-55.96-59.55-78.24-89.58-3.04-5.89.77-11.85,6.49-14.05ZM300,369.43H67l26.81,47.6c2.76,5.65,14.58,15.28,20.69,15.28h221.5l-36-62.88Z"/>
  <path class="st0" d="M174.75,127.11c5.94-1.12,10.03,1.76,12.67,6.86,27.39,52.96,64.07,103.96,90.75,156.94,5.15,10.23,5.96,17.49-7.63,19.67H83.45c-9.43-.89-12.42-6.93-9.67-15.73l96.3-165.38c1.36-.85,3.12-2.07,4.67-2.36ZM253,289.59l-76.49-130.76-75.51,130.76h152Z"/>
</svg>