<?xml version="1.0" encoding="UTF-8"?>
<svg id="Capa_1" xmlns="http://www.w3.org/2000/svg" version="1.1" viewBox="0 0 300 300">
  <!-- Generator: Adobe Illustrator 29.8.3, SVG Export Plug-In . SVG Version: 2.1.1 Build 3)  -->
  <defs>
    <style>
      .st0 {
        fill: #ba9b6e;
      }

      .st1 {
        fill: #c38a62;
      }

      .st2 {
        fill: #eae5b0;
      }

      .st3 {
        fill: #1d1e1c;
      }
    </style>
  </defs>
  <g>
    <g>
      <path d="M35.13,201.84c0,.61-.16,1.25-.49,1.9-.33.66-.73,1.31-1.21,1.97-.48.65-1,1.28-1.57,1.87-.57.59-1.09,1.1-1.57,1.54-1.18,1.05-2.39,2.04-3.63,2.98-1.25.94-2.54,1.78-3.87,2.52s-2.72,1.33-4.16,1.77c-1.44.44-2.95.66-4.52.66-4.76,0-7.14-2.45-7.14-7.34,0-.48.2-1.42.59-2.82.39-1.4.9-2.99,1.51-4.78s1.33-3.67,2.16-5.63c.83-1.96,1.68-3.77,2.55-5.4.87-1.64,1.74-2.98,2.59-4.03s1.65-1.57,2.39-1.57c.48,0,.84.15,1.08.46s.36.63.36.98c-.04.26-.35.82-.92,1.67-.57.85-1.16,1.71-1.77,2.59-.09.13-.24.35-.46.65s-.44.61-.65.92c-.26.35-.52.72-.79,1.11-.18.31-.56,1.08-1.15,2.33-.59,1.24-1.21,2.68-1.87,4.32-.65,1.64-1.24,3.34-1.77,5.11-.52,1.77-.79,3.31-.79,4.62,0,.74.16,1.33.49,1.77.33.44.72.77,1.18.98.46.22.94.36,1.44.42.5.07.95.1,1.34.1,1.62,0,3.33-.36,5.14-1.08,1.81-.72,3.55-1.67,5.21-2.85,1.66-1.18,3.19-2.54,4.59-4.09,1.4-1.55,2.49-3.16,3.27-4.81.18-.31.36-.5.56-.59s.38-.13.56-.13c.35,0,.66.24.92.72.26.48.39.87.39,1.18Z"/>
      <path class="st3" d="M14.1,217.4c-4.98,0-7.5-2.59-7.5-7.7,0-.52.2-1.47.6-2.92.39-1.4.9-3.01,1.51-4.8.61-1.79,1.34-3.7,2.17-5.66.83-1.96,1.69-3.79,2.57-5.43.87-1.64,1.76-3.02,2.63-4.09.93-1.15,1.81-1.71,2.67-1.71.6,0,1.05.2,1.37.6.29.37.44.78.44,1.21-.04.28-.18.68-.98,1.87-.57.85-1.16,1.72-1.77,2.59-.08.13-.24.35-.46.66l-.66.92c-.26.35-.52.72-.78,1.1-.15.27-.54,1.05-1.12,2.28-.58,1.22-1.2,2.66-1.86,4.3-.65,1.63-1.24,3.33-1.76,5.08-.51,1.73-.77,3.25-.77,4.52,0,.66.14,1.18.42,1.55.3.4.64.68,1.05.87.42.2.87.33,1.33.39.49.06.92.1,1.3.1,1.56,0,3.25-.35,5.01-1.06,1.78-.71,3.51-1.66,5.13-2.81,1.63-1.16,3.15-2.52,4.53-4.04,1.37-1.52,2.45-3.11,3.22-4.73.23-.4.47-.65.74-.77.77-.34,1.46-.13,1.94.75.29.54.44.98.44,1.35,0,.67-.18,1.36-.53,2.06-.34.67-.76,1.35-1.24,2.02-.49.67-1.03,1.31-1.6,1.9-.6.62-1.12,1.13-1.59,1.55-1.18,1.05-2.41,2.06-3.66,3-1.25.95-2.57,1.8-3.91,2.55-1.35.75-2.77,1.36-4.23,1.8-1.46.45-3.02.67-4.63.67ZM18.75,185.82c-.62,0-1.33.48-2.11,1.44-.84,1.03-1.7,2.37-2.55,3.97-.87,1.63-1.72,3.43-2.54,5.37-.82,1.95-1.55,3.83-2.15,5.61-.6,1.77-1.11,3.38-1.5,4.76-.48,1.69-.58,2.41-.58,2.72,0,4.69,2.22,6.98,6.78,6.98,1.53,0,3.02-.22,4.42-.64,1.41-.43,2.78-1.01,4.09-1.74,1.31-.73,2.6-1.57,3.83-2.5,1.23-.93,2.45-1.93,3.61-2.96.46-.41.97-.91,1.55-1.52.55-.57,1.07-1.19,1.54-1.83.46-.63.86-1.28,1.18-1.92.3-.6.45-1.18.45-1.74,0-.17-.06-.48-.35-1-.31-.57-.61-.61-1.01-.43-.08.04-.22.14-.39.44-.79,1.66-1.91,3.31-3.32,4.88-1.41,1.57-2.98,2.96-4.65,4.15-1.67,1.19-3.45,2.16-5.28,2.89-1.85.73-3.62,1.11-5.28,1.11-.41,0-.88-.03-1.39-.1-.54-.07-1.06-.22-1.55-.46-.51-.24-.95-.61-1.31-1.09-.37-.5-.56-1.17-.56-1.99,0-1.33.27-2.92.8-4.72.52-1.76,1.12-3.49,1.78-5.14.66-1.65,1.29-3.12,1.88-4.34.6-1.27.98-2.04,1.16-2.35.28-.42.54-.8.81-1.15l.65-.91c.21-.3.37-.52.45-.65.61-.88,1.2-1.74,1.77-2.59.73-1.1.85-1.43.86-1.53,0-.21-.1-.46-.29-.7-.17-.22-.43-.32-.8-.32Z"/>
    </g>
    <g>
      <path d="M71.81,203.21c0,.79-.36,1.76-1.08,2.91-.72,1.16-1.69,2.28-2.92,3.37-1.22,1.09-2.64,2.02-4.26,2.78-1.62.77-3.3,1.15-5.04,1.15-.79,0-1.62-.13-2.49-.39-.87-.26-1.73-.64-2.56-1.15-.83-.5-1.57-1.11-2.23-1.83-.65-.72-1.13-1.54-1.44-2.46-.26.26-.58.7-.95,1.31-.37.61-.77,1.23-1.21,1.87-.44.64-.92,1.18-1.44,1.64-.52.46-1.07.69-1.64.69s-1.04-.3-1.41-.88c-.37-.59-.67-1.25-.89-1.97s-.37-1.41-.46-2.06c-.09-.65-.13-1.03-.13-1.11,0-.52.15-1.52.46-2.98.31-1.46.76-2.98,1.38-4.55.61-1.57,1.39-2.97,2.32-4.19s2.04-1.83,3.31-1.83c.48,0,.8.21.95.62.15.41.23.82.23,1.21v1.97c.22.18.45.29.69.36.24.06.46.15.66.26.2.11.35.27.46.49s.17.57.17,1.05c0,.31-.02.58-.07.82-.05.24-.07.47-.07.69,0,1.13.09,2.25.26,3.34.17,1.09.52,2.06,1.05,2.91.52.85,1.25,1.55,2.16,2.1.92.55,2.14.82,3.67.82,1.92,0,3.55-.41,4.88-1.21,1.33-.81,2.45-1.7,3.34-2.68.89-.98,1.6-1.88,2.13-2.69.53-.81.96-1.21,1.31-1.21.57,0,.85.28.85.85ZM48.82,200.33c0-.17-.04-.34-.13-.49-.09-.15-.13-.29-.13-.43,0-.17.04-.33.13-.46s.13-.31.13-.52c0-.13-.04-.23-.13-.3-.09-.06-.13-.14-.13-.23-.39.09-.8.46-1.21,1.11-.41.66-.81,1.42-1.18,2.29-.37.87-.67,1.76-.89,2.65s-.33,1.63-.33,2.19c0,.31.09.81.26,1.51.17.7.37,1.16.59,1.38.74-1.53,1.43-3.01,2.06-4.45.63-1.44.95-2.86.95-4.26Z"/>
      <path class="st3" d="M58.51,213.79c-.82,0-1.69-.14-2.59-.41-.9-.27-1.78-.67-2.64-1.18-.85-.51-1.62-1.15-2.31-1.9-.54-.6-.98-1.27-1.29-2-.16.22-.33.48-.52.79-.37.61-.78,1.24-1.22,1.88-.45.66-.96,1.23-1.5,1.71-.59.52-1.22.78-1.88.78-.7,0-1.27-.35-1.71-1.05-.39-.61-.7-1.31-.93-2.05-.22-.73-.38-1.45-.47-2.12-.13-1-.13-1.12-.13-1.16,0-.56.15-1.56.47-3.06.31-1.48.78-3.04,1.39-4.61.62-1.6,1.42-3.04,2.37-4.28,1.01-1.31,2.22-1.98,3.6-1.98.63,0,1.08.31,1.29.86.17.45.25.9.25,1.34v1.78c.14.09.28.15.42.2.25.07.5.16.73.29.26.15.47.37.61.65s.2.67.2,1.21c0,.32-.02.62-.07.88-.04.21-.06.42-.06.62,0,1.11.09,2.22.26,3.28.16,1.04.5,1.97,1,2.78.49.8,1.18,1.46,2.04,1.98.85.51,2.03.77,3.48.77,1.84,0,3.42-.39,4.69-1.16,1.3-.79,2.39-1.67,3.26-2.62.88-.97,1.59-1.86,2.09-2.64.61-.94,1.12-1.38,1.61-1.38.77,0,1.21.44,1.21,1.21,0,.86-.37,1.88-1.14,3.11-.74,1.19-1.74,2.35-2.98,3.45-1.24,1.11-2.7,2.07-4.34,2.84-1.66.78-3.4,1.18-5.2,1.18ZM49.96,206.93l.19.56c.29.87.75,1.65,1.37,2.33.63.7,1.36,1.29,2.15,1.77.8.49,1.64.86,2.47,1.11.83.25,1.64.38,2.38.38,1.69,0,3.33-.37,4.89-1.11,1.58-.74,2.98-1.66,4.17-2.73,1.19-1.06,2.15-2.17,2.85-3.3.68-1.09,1.03-2.01,1.03-2.72,0-.37-.12-.49-.49-.49-.03,0-.34.03-1.01,1.05-.53.81-1.25,1.73-2.16,2.73-.92,1-2.07,1.93-3.42,2.75-1.39.84-3.09,1.27-5.07,1.27-1.59,0-2.89-.29-3.85-.87-.97-.57-1.74-1.32-2.29-2.22-.55-.89-.92-1.92-1.1-3.05-.18-1.11-.27-2.25-.27-3.4,0-.24.02-.5.07-.75.04-.22.06-.48.06-.75,0-.52-.07-.77-.13-.89-.08-.15-.18-.26-.31-.34-.18-.1-.37-.17-.57-.23-.29-.08-.57-.23-.82-.43l-.13-.11v-2.14c0-.35-.07-.71-.21-1.08-.1-.27-.28-.39-.61-.39-1.16,0-2.15.55-3.02,1.69-.91,1.19-1.68,2.57-2.27,4.1-.6,1.54-1.06,3.05-1.36,4.5-.3,1.43-.45,2.41-.45,2.91,0,.02,0,.18.13,1.07.09.64.23,1.31.44,2.01.21.69.49,1.32.85,1.88.63,1,1.63.88,2.5.12.5-.44.96-.96,1.38-1.57.43-.63.84-1.25,1.2-1.85.38-.63.72-1.09,1-1.38l.41-.41ZM45.91,209.66l-.36-.36c-.27-.27-.49-.77-.68-1.55-.18-.73-.27-1.25-.27-1.59,0-.59.11-1.36.34-2.28.22-.91.52-1.82.9-2.71.37-.88.78-1.67,1.2-2.34.47-.74.94-1.16,1.44-1.27l.44-.1v.45c.11.04.26.21.26.53,0,.29-.06.54-.19.73-.05.07-.07.15-.07.25,0,.07.03.15.08.25.12.21.18.43.18.67,0,1.44-.33,2.92-.98,4.41-.64,1.46-1.34,2.96-2.07,4.47l-.22.46ZM48.39,198.37c-.19.13-.44.37-.74.84-.4.64-.79,1.39-1.15,2.24-.36.86-.66,1.73-.87,2.6-.21.86-.32,1.57-.32,2.11,0,.19.04.59.25,1.42.07.29.14.52.21.69.62-1.29,1.21-2.58,1.76-3.83.61-1.39.92-2.78.92-4.11,0-.11-.03-.21-.08-.31-.12-.2-.18-.41-.18-.61,0-.25.06-.47.19-.66.04-.07.07-.18.07-.32-.02-.02-.05-.04-.07-.06Z"/>
    </g>
    <g>
      <path d="M92.25,208.78c0,.26-.09.52-.26.79-.18.26-.38.5-.62.72s-.5.41-.79.56c-.28.15-.54.23-.75.23-.74,0-1.69-.16-2.85-.49-1.16-.33-2.09-.84-2.78-1.54-.74-.74-1.4-1.63-1.97-2.65s-1.2-2.54-1.9-4.55c-.48,1.92-1.04,3.82-1.67,5.7-.63,1.88-1.65,3.6-3.04,5.18-.09.09-.22.13-.39.13-.31,0-.64-.15-.98-.46-.35-.31-.52-.61-.52-.92s-.03-1.02-.1-2.13c-.06-1.11-.14-2.36-.23-3.73-.09-1.37-.16-2.77-.23-4.19s-.1-2.59-.1-3.51c0-.44.02-1.01.07-1.73s.18-1.34.39-1.87c.04-.09.21-.26.49-.52.28-.26.6-.39.95-.39.31,0,.48.2.52.59.05.39.07.83.07,1.31v10.35c0,.22.03.52.1.92.06.39.16.68.29.85.48-1.05.93-2.28,1.34-3.7.41-1.42.82-2.77,1.21-4.06.39-1.29.79-2.38,1.18-3.27s.79-1.34,1.18-1.34c.44,0,.78.09,1.05.26.26.17.48.52.65,1.05.22,1.27.39,2.39.53,3.37.13.98.29,1.87.49,2.65.2.78.48,1.52.85,2.19.37.68.89,1.3,1.54,1.87.61.57,1.3.98,2.06,1.24.76.26,1.43.39,2,.39.26,0,.55-.05.85-.16.3-.11.52-.16.65-.16.18,0,.34.15.49.46.15.31.23.5.23.59Z"/>
      <path class="st3" d="M75.22,213.2c-.4,0-.81-.18-1.22-.55-.43-.37-.65-.78-.65-1.19,0-.3-.03-1-.1-2.11-.05-.92-.12-1.94-.18-3.04l-.04-.69c-.09-1.38-.16-2.78-.23-4.2-.07-1.42-.1-2.61-.1-3.52,0-.42.02-.98.07-1.76.04-.75.19-1.42.42-1.99.06-.12.16-.27.58-.65.35-.32.75-.49,1.19-.49.24,0,.79.09.88.91.05.39.07.85.07,1.35v10.35c0,.18.03.43.08.75.33-.82.65-1.75.95-2.78.41-1.42.82-2.78,1.21-4.07.4-1.3.8-2.41,1.2-3.31.29-.67.77-1.56,1.51-1.56.51,0,.93.11,1.25.32.33.22.6.62.8,1.23.24,1.35.41,2.46.54,3.44.13.96.29,1.84.48,2.61.19.75.46,1.46.82,2.11.35.63.84,1.23,1.46,1.77.58.54,1.23.93,1.94,1.17.72.25,1.35.37,1.88.37.22,0,.47-.05.73-.14.35-.13.6-.19.77-.19.32,0,.6.22.82.66.22.45.27.62.27.75,0,.33-.11.66-.32.99-.19.29-.42.55-.68.79-.26.24-.55.45-.86.61-.34.18-.64.27-.92.27-.77,0-1.77-.17-2.95-.51-1.21-.34-2.2-.89-2.94-1.63-.76-.76-1.44-1.68-2.03-2.73-.46-.84-.98-2.01-1.53-3.5-.41,1.54-.87,3.07-1.38,4.59-.64,1.91-1.69,3.69-3.12,5.3-.17.17-.39.25-.66.25ZM74.96,193.75c-.26,0-.49.1-.7.3-.35.32-.41.41-.41.42-.19.46-.31,1.05-.35,1.72-.04.75-.07,1.31-.07,1.71,0,.91.03,2.08.1,3.49.07,1.42.14,2.81.23,4.19l.04.69c.07,1.11.13,2.12.18,3.05.07,1.13.1,1.84.1,2.15,0,.2.13.41.4.64.28.24.53.37.75.37.09,0,.13-.02.14-.02,1.34-1.52,2.34-3.22,2.96-5.04.63-1.87,1.19-3.78,1.66-5.67l.29-1.18.4,1.15c.69,1.99,1.32,3.5,1.88,4.5.55,1,1.19,1.86,1.91,2.57.65.65,1.53,1.14,2.63,1.45,1.12.32,2.04.48,2.75.48.16,0,.35-.06.58-.19.26-.14.5-.31.72-.51.22-.2.41-.42.57-.66.13-.2.2-.39.2-.57,0-.03-.04-.14-.19-.44-.11-.22-.19-.26-.19-.26,0,0-.14,0-.51.15-.34.12-.67.18-.98.18-.61,0-1.32-.14-2.12-.41-.81-.28-1.55-.72-2.19-1.32-.68-.59-1.22-1.25-1.61-1.96-.38-.7-.68-1.47-.88-2.28-.2-.8-.37-1.71-.5-2.69-.13-.97-.3-2.07-.52-3.36-.17-.5-.37-.72-.5-.81-.2-.14-.49-.2-.85-.2-.06,0-.38.05-.85,1.13-.38.87-.78,1.96-1.17,3.23-.39,1.29-.8,2.64-1.21,4.06-.43,1.46-.88,2.69-1.36,3.75l-.25.55-.36-.49c-.17-.23-.29-.56-.36-1.01-.07-.41-.1-.73-.1-.98v-10.35c0-.47-.02-.9-.06-1.27-.03-.27-.1-.27-.16-.27Z"/>
    </g>
    <g>
      <path d="M158.94,219.85c0,.3-.11.63-.33.98-.22.35-.52.52-.92.52-.22,0-.46-.06-.72-.19-1.57-.74-3.41-1.34-5.5-1.8-2.1-.46-4.25-.86-6.45-1.21-2.21-.35-4.36-.73-6.45-1.15s-3.93-.95-5.5-1.61c.26.57.52,1.03.78,1.38.26.35.49.66.69.92.2.26.36.51.49.75s.2.56.2.95c0,.35-.13.61-.39.79-.26.17-.52.26-.79.26-.52,0-1.08-.33-1.67-.98-.59-.66-1.19-1.49-1.8-2.49-.61-1-1.21-2.13-1.8-3.37s-1.13-2.46-1.61-3.63c-.48-1.18-.9-2.26-1.24-3.24-.35-.98-.59-1.74-.72-2.26l-2.88-11.53c0-.13.03-.31.1-.52s.23-.44.49-.65c-.18-.35-.26-.72-.26-1.11,0-1.22.7-2.35,2.09-3.37s3.09-1.9,5.08-2.62c1.99-.72,4.07-1.28,6.26-1.67,2.18-.39,4.04-.59,5.57-.59.44,0,1.09.03,1.96.1.87.07,1.74.23,2.59.49.85.26,1.59.67,2.23,1.21.63.55.95,1.3.95,2.26s-.47,1.97-1.41,3.14c-.94,1.18-2.11,2.42-3.51,3.73-1.4,1.31-2.91,2.65-4.52,4.03-1.62,1.38-3.12,2.75-4.52,4.13-1.4,1.38-2.57,2.71-3.5,4-.94,1.29-1.41,2.48-1.41,3.57,0,.83.36,1.56,1.08,2.19.72.63,1.63,1.19,2.72,1.67,1.09.48,2.28.9,3.57,1.24,1.29.35,2.51.64,3.67.85,1.16.22,2.16.38,3.01.49.85.11,1.36.16,1.54.16.57,0,1.55.07,2.95.2,1.4.13,2.83.36,4.29.69,1.46.33,2.76.75,3.9,1.28,1.13.53,1.7,1.2,1.7,2.03ZM146.3,186.51c0-.31-.15-.58-.46-.82-.31-.24-.71-.44-1.21-.59-.5-.15-1.05-.26-1.64-.33s-1.17-.1-1.73-.1c-.87,0-1.92.13-3.14.39-1.23.26-2.46.59-3.7.98-1.24.39-2.39.79-3.44,1.18s-1.81.72-2.29.98c-.92.52-1.81,1.1-2.68,1.73-.87.64-1.31,1.26-1.31,1.87,0,.09.06.18.2.26.13.09.2.24.2.46,0,.26.13.93.39,2,.26,1.07.57,2.27.92,3.6.35,1.33.73,2.65,1.14,3.96s.8,2.36,1.15,3.14c1.79-2.53,3.72-4.75,5.8-6.65,2.07-1.9,3.99-3.58,5.73-5.04,1.75-1.46,3.2-2.75,4.36-3.86,1.16-1.11,1.74-2.17,1.74-3.18Z"/>
      <path class="st3" d="M157.7,221.72c-.27,0-.57-.08-.88-.23-1.52-.72-3.35-1.32-5.42-1.77-2.1-.46-4.27-.87-6.43-1.21-2.21-.35-4.39-.74-6.47-1.15-1.72-.34-3.29-.77-4.67-1.27.1.18.21.33.31.47l.69.92c.21.28.38.54.52.8.16.29.24.67.24,1.12s-.19.85-.55,1.09c-.93.62-1.92.34-2.93-.78-.61-.68-1.23-1.53-1.84-2.54-.61-1-1.22-2.15-1.82-3.41-.59-1.24-1.13-2.46-1.61-3.65-.48-1.19-.9-2.29-1.25-3.26-.35-.98-.6-1.75-.73-2.29l-2.89-11.62c0-.17.04-.37.12-.63.07-.22.2-.43.4-.64-.12-.32-.19-.67-.19-1.02,0-1.34.75-2.57,2.24-3.67,1.42-1.04,3.16-1.94,5.17-2.67,1.99-.72,4.12-1.29,6.31-1.69,2.19-.4,4.09-.6,5.64-.6.44,0,1.09.03,1.99.1.9.07,1.8.24,2.67.51.89.27,1.69.7,2.36,1.28.71.62,1.08,1.47,1.08,2.54,0,1-.5,2.13-1.49,3.37-.95,1.19-2.14,2.46-3.54,3.77-1.39,1.3-2.92,2.66-4.53,4.04-1.59,1.36-3.11,2.74-4.5,4.11-1.38,1.36-2.54,2.69-3.47,3.95-.89,1.22-1.34,2.35-1.34,3.36,0,.73.31,1.36.96,1.92.69.61,1.57,1.15,2.63,1.61,1.07.47,2.25.88,3.52,1.23,1.28.35,2.5.63,3.64.85,1.15.22,2.16.38,2.99.49,1.09.14,1.4.16,1.49.16.58,0,1.55.07,2.98.2,1.4.13,2.86.36,4.34.69,1.49.33,2.82.77,3.97,1.3,1.27.59,1.91,1.38,1.91,2.36,0,.37-.13.76-.38,1.17-.28.45-.71.69-1.22.69ZM132.35,214.7l.85.36c1.54.64,3.37,1.18,5.43,1.59,2.07.41,4.24.79,6.44,1.14,2.18.34,4.36.75,6.48,1.21,2.12.47,4,1.08,5.58,1.83.58.29.93.2,1.18-.19.18-.29.27-.56.27-.79,0-.68-.49-1.24-1.49-1.7-1.1-.51-2.39-.93-3.83-1.25-1.45-.32-2.87-.55-4.24-.68-1.39-.13-2.37-.2-2.91-.2-.12,0-.42-.02-1.59-.17-.85-.11-1.87-.27-3.04-.49-1.16-.22-2.4-.51-3.7-.86-1.3-.35-2.52-.78-3.62-1.26-1.12-.49-2.06-1.07-2.81-1.73-.8-.7-1.21-1.53-1.21-2.47,0-1.17.5-2.44,1.48-3.78.94-1.3,2.14-2.66,3.54-4.04,1.41-1.38,2.94-2.78,4.54-4.14,1.61-1.37,3.12-2.72,4.51-4.02,1.38-1.29,2.55-2.54,3.47-3.7.88-1.11,1.33-2.09,1.33-2.92s-.27-1.51-.82-1.99c-.59-.51-1.3-.89-2.1-1.14-.82-.25-1.66-.41-2.51-.48-.88-.07-1.52-.1-1.94-.1-1.5,0-3.35.2-5.51.58-2.16.39-4.24.95-6.2,1.65-1.94.7-3.62,1.57-4.99,2.57-1.29.95-1.95,1.99-1.95,3.08,0,.34.07.66.22.95l.13.26-.22.18c-.2.17-.33.33-.38.48-.06.19-.08.31-.08.38l2.87,11.48c.13.52.37,1.27.71,2.23.34.96.76,2.05,1.24,3.23.48,1.18,1.02,2.39,1.6,3.62.59,1.24,1.19,2.36,1.78,3.34.59.97,1.19,1.79,1.76,2.44.75.83,1.35,1.09,1.99.66.16-.11.23-.26.23-.49,0-.33-.05-.59-.15-.78-.12-.22-.28-.46-.46-.71l-.69-.92c-.28-.37-.56-.86-.82-1.44l-.39-.84ZM128.61,205.97l-.26-.58c-.36-.8-.74-1.84-1.16-3.18-.42-1.32-.8-2.66-1.15-3.98-.35-1.33-.66-2.54-.92-3.61-.36-1.48-.4-1.9-.4-2.09,0-.08-.01-.14-.04-.16-.29-.19-.36-.41-.36-.56,0-.74.48-1.45,1.46-2.16.87-.63,1.79-1.23,2.72-1.76.5-.27,1.26-.6,2.35-1.01,1.04-.39,2.2-.79,3.46-1.19,1.25-.4,2.51-.73,3.74-.99,1.24-.26,2.32-.4,3.22-.4.59,0,1.19.03,1.77.1.61.07,1.18.18,1.7.34.54.17.99.39,1.33.65.4.31.6.69.6,1.1,0,1.1-.62,2.26-1.85,3.44-1.17,1.12-2.64,2.43-4.38,3.88-1.77,1.48-3.69,3.17-5.72,5.03-2.04,1.87-3.98,4.09-5.75,6.59l-.37.52ZM125.05,191.75s.02.01.03.02c.17.11.36.33.36.76,0,.13.05.55.38,1.91.26,1.07.57,2.27.92,3.6.34,1.31.73,2.64,1.14,3.95.31.99.61,1.83.88,2.52,1.7-2.33,3.53-4.41,5.47-6.18,2.04-1.87,3.97-3.57,5.74-5.05,1.72-1.44,3.18-2.74,4.34-3.85,1.08-1.04,1.63-2.02,1.63-2.92,0-.07,0-.28-.32-.54-.27-.21-.64-.39-1.09-.53-.48-.14-1.01-.25-1.57-.31-.56-.06-1.13-.09-1.69-.09-.85,0-1.88.13-3.07.38-1.2.26-2.44.59-3.67.97-1.24.39-2.39.79-3.42,1.17-1.04.39-1.79.71-2.25.96-.9.51-1.79,1.09-2.65,1.71-.74.54-1.13,1.04-1.16,1.51Z"/>
    </g>
    <g>
      <path d="M168.05,202.69c0,.96-.13,1.88-.39,2.75-.26.87-.61,1.64-1.05,2.29-.44.65-.95,1.17-1.54,1.54-.59.37-1.23.56-1.93.56-1.22,0-2.18-.35-2.88-1.05-.7-.7-1.23-1.51-1.61-2.42-.37-.92-.61-1.84-.72-2.78-.11-.94-.16-1.65-.16-2.13,0-.78.12-1.67.36-2.65.24-.98.57-1.89.98-2.72.41-.83.88-1.53,1.41-2.09.53-.57,1.07-.85,1.64-.85.13,0,.34.05.62.13.28.09.58.22.88.39.31.18.58.39.82.66.24.26.4.57.49.92.48.04.96.22,1.44.52.48.31.74.55.78.72.35,1.14.58,2.27.69,3.41.11,1.13.16,2.08.16,2.82ZM165.1,201.51c0-.65-.07-1.34-.2-2.06s-.39-1.45-.79-2.19c-.09.05-.2.07-.33.07-.18,0-.32-.02-.43-.07-.11-.04-.21-.07-.29-.07-.53,0-.94.14-1.25.43s-.54.66-.69,1.11c-.15.46-.25.95-.29,1.47-.05.52-.07,1.03-.07,1.51s.02,1.02.07,1.6c.04.59.14,1.15.29,1.67.15.53.36.97.62,1.34.26.37.61.56,1.05.56s.81-.23,1.11-.69c.31-.46.54-.99.72-1.6s.3-1.21.36-1.8c.07-.59.1-1.01.1-1.28Z"/>
      <path class="st3" d="M163.14,210.19c-1.32,0-2.37-.39-3.14-1.15-.73-.73-1.3-1.59-1.69-2.54-.38-.95-.63-1.92-.74-2.88-.11-.96-.17-1.67-.17-2.17,0-.81.13-1.73.37-2.74.24-1,.58-1.94,1.01-2.8.43-.86.92-1.59,1.47-2.18.59-.64,1.24-.97,1.91-.97.16,0,.39.04.72.14.32.1.64.24.96.43.34.2.65.44.91.73.22.24.39.52.5.83.45.08.91.26,1.36.55.59.38.87.66.94.94.35,1.14.59,2.31.7,3.46.11,1.15.17,2.11.17,2.85,0,.99-.14,1.96-.41,2.86-.27.9-.64,1.71-1.09,2.39-.47.7-1.02,1.25-1.65,1.64-.64.41-1.36.61-2.13.61ZM162.16,193.48c-.47,0-.92.24-1.37.74-.5.54-.95,1.21-1.35,2.01-.4.81-.73,1.7-.95,2.64-.23.95-.35,1.81-.35,2.57,0,.47.05,1.17.16,2.09.1.9.34,1.8.7,2.69.35.87.87,1.64,1.53,2.3.62.62,1.51.94,2.63.94.64,0,1.21-.16,1.74-.5.54-.34,1.02-.82,1.43-1.43.41-.62.75-1.36,1-2.2.25-.83.38-1.72.38-2.65,0-.72-.05-1.66-.16-2.78-.11-1.1-.33-2.23-.67-3.34,0-.01-.08-.17-.63-.52-.43-.27-.86-.43-1.28-.47l-.26-.02-.06-.25c-.07-.29-.21-.55-.41-.76-.21-.23-.46-.43-.73-.59-.28-.16-.55-.28-.81-.36-.33-.1-.46-.11-.51-.11ZM162.81,207.24c-.55,0-1.02-.25-1.34-.71-.29-.4-.51-.89-.67-1.45-.16-.54-.26-1.13-.31-1.74-.04-.58-.07-1.13-.07-1.63s.02-1.02.07-1.54c.04-.55.15-1.08.31-1.56.17-.51.43-.94.78-1.26.37-.35.87-.52,1.49-.52.13,0,.27.03.43.09.05.02.13.04.3.04.1,0,.14-.02.16-.03l.32-.16.17.32c.41.78.69,1.55.82,2.3.13.74.2,1.46.2,2.13,0,.28-.03.71-.1,1.32-.07.6-.19,1.23-.37,1.86-.18.64-.44,1.22-.77,1.7-.38.56-.85.85-1.42.85ZM163.07,197.55c-.43,0-.76.11-1,.33-.26.24-.46.57-.59.96-.14.43-.24.89-.28,1.39-.04.5-.07,1-.07,1.48s.02,1.01.07,1.58c.04.57.13,1.1.28,1.6.14.48.33.9.57,1.24.19.28.43.4.75.4s.58-.17.81-.53c.28-.43.51-.93.67-1.5.17-.59.29-1.18.35-1.74.07-.57.1-.99.1-1.24,0-.63-.06-1.3-.19-2-.11-.6-.32-1.21-.62-1.84-.25.03-.52-.01-.7-.09-.09-.03-.14-.04-.16-.04Z"/>
    </g>
    <g>
      <path d="M190.13,222.93c0,.13-.02.35-.07.65s-.12.6-.23.89c-.11.28-.27.54-.49.79-.22.24-.5.36-.85.36-1.01,0-1.66-.31-1.97-.92-.31-.61-.46-1.29-.46-2.03,0-.17-.05-.46-.13-.85s-.17-.83-.26-1.31-.18-.96-.26-1.44c-.09-.48-.13-.9-.13-1.25,0-.65-.03-1.4-.1-2.23-.06-.83-.15-1.67-.26-2.52s-.22-1.67-.33-2.46c-.11-.79-.21-1.48-.3-2.1l-.2-.19c-.48.31-.91.68-1.28,1.11-.37.44-.74.85-1.11,1.24-.37.39-.77.72-1.18.98-.41.26-.91.39-1.47.39-.78,0-1.48-.27-2.09-.82-.61-.54-1.11-1.19-1.51-1.93-.39-.74-.69-1.5-.89-2.26-.19-.76-.29-1.36-.29-1.8,0-.96.21-2.05.62-3.27.41-1.22.99-2.37,1.73-3.44.74-1.07,1.63-1.98,2.65-2.72s2.17-1.11,3.44-1.11c.48,0,.92.13,1.31.39.39.26.75.58,1.08.95.33.37.61.75.85,1.14s.45.7.62.92c.48.57.85,1.06,1.11,1.48.26.41.39.93.39,1.54,0,.13-.07.52-.2,1.18-.13.65-.2,1.2-.2,1.64,0,1.79.05,3.61.16,5.47.11,1.86.25,3.58.43,5.18.17,1.59.35,2.98.52,4.16.17,1.18.31,1.99.39,2.42.09.35.26.58.52.69s.39.47.39,1.08ZM184.43,200.92c-.04-.44-.21-.98-.49-1.64-.28-.65-.86-.98-1.74-.98-.74,0-1.42.32-2.03.95-.61.64-1.13,1.38-1.57,2.23-.44.85-.77,1.68-.98,2.49s-.33,1.41-.33,1.8c0,.09.03.28.1.59.07.31.15.63.26.98s.25.65.43.92c.17.26.37.39.59.39.53,0,1.11-.36,1.77-1.08.65-.72,1.28-1.54,1.87-2.46s1.09-1.79,1.51-2.62c.41-.83.62-1.35.62-1.57Z"/>
      <path class="st3" d="M188.49,225.98c-1.15,0-1.92-.38-2.29-1.12-.33-.66-.5-1.4-.5-2.2,0-.1-.02-.31-.12-.77-.09-.4-.17-.84-.26-1.32l-.26-1.44c-.09-.5-.14-.94-.14-1.31,0-.64-.03-1.38-.1-2.2-.06-.8-.15-1.64-.26-2.5-.09-.73-.19-1.43-.28-2.12l-.3-2.16c-.33.24-.62.52-.88.82-.38.44-.75.86-1.13,1.26-.39.41-.81.76-1.25,1.04-.47.3-1.03.45-1.67.45-.88,0-1.66-.31-2.34-.91-.64-.57-1.17-1.25-1.59-2.03-.41-.76-.71-1.55-.92-2.34-.21-.81-.31-1.43-.31-1.89,0-1,.22-2.14.64-3.39.42-1.25,1.02-2.44,1.78-3.53.77-1.1,1.69-2.05,2.74-2.81,1.08-.78,2.31-1.18,3.65-1.18.55,0,1.06.15,1.51.46.42.28.8.62,1.15,1.01.34.39.64.79.89,1.2.23.38.43.67.6.88.48.58.87,1.09,1.14,1.51.3.47.45,1.06.45,1.73,0,.12-.02.35-.2,1.25-.13.63-.19,1.16-.19,1.57,0,1.77.05,3.61.16,5.45.11,1.83.25,3.57.43,5.16.17,1.56.34,2.96.52,4.15.16,1.12.3,1.95.39,2.41.07.29.21.38.31.42.62.26.62,1.13.62,1.41,0,.14-.02.35-.07.7-.05.33-.13.65-.25.97-.13.33-.31.63-.56.9-.29.32-.67.48-1.12.48ZM184.15,207.86l.49.48.36,2.56c.09.68.19,1.39.28,2.12.11.88.2,1.73.26,2.54.07.84.1,1.59.1,2.25,0,.33.04.73.12,1.18l.26,1.44c.09.48.17.91.26,1.3.1.43.14.73.14.93,0,.69.14,1.3.42,1.87.24.48.78.72,1.64.72.25,0,.43-.08.58-.24.18-.2.33-.43.42-.67.1-.26.17-.53.21-.81.04-.28.06-.48.06-.6,0-.53-.11-.72-.17-.75-.26-.11-.59-.36-.74-.93-.1-.48-.23-1.33-.4-2.46-.18-1.2-.36-2.6-.53-4.17-.18-1.6-.32-3.35-.43-5.19-.11-1.86-.16-3.7-.16-5.49,0-.45.07-1.03.2-1.71.16-.83.19-1.05.19-1.11,0-.54-.11-.99-.34-1.35-.25-.39-.62-.88-1.08-1.44-.19-.24-.41-.56-.66-.96-.22-.37-.5-.74-.81-1.09-.3-.35-.64-.65-1.01-.89-.33-.22-.7-.33-1.11-.33-1.18,0-2.27.35-3.23,1.05-.98.71-1.85,1.6-2.57,2.63-.72,1.04-1.29,2.16-1.69,3.35-.4,1.18-.6,2.24-.6,3.16,0,.4.1.98.28,1.71.19.73.48,1.46.86,2.18.37.71.85,1.32,1.43,1.83.55.49,1.15.73,1.85.73.5,0,.92-.11,1.28-.34.39-.25.76-.56,1.11-.93.37-.39.73-.8,1.1-1.23.39-.46.84-.86,1.36-1.18l.24-.15ZM178.66,209.01c-.24,0-.58-.1-.89-.56-.2-.3-.35-.63-.47-1.01-.11-.36-.2-.7-.27-1.01-.09-.44-.11-.58-.11-.67,0-.43.11-1.05.34-1.9.22-.83.56-1.69,1.01-2.56.45-.88,1-1.66,1.63-2.31.68-.7,1.45-1.06,2.29-1.06,1.28,0,1.83.65,2.07,1.2.3.7.47,1.27.52,1.75v.04c0,.21-.08.57-.66,1.74-.43.86-.95,1.75-1.53,2.65-.59.92-1.23,1.76-1.9,2.5-.74.81-1.4,1.2-2.04,1.2ZM182.2,198.66c-.64,0-1.22.27-1.77.84-.58.61-1.09,1.33-1.51,2.14-.42.82-.75,1.64-.96,2.42-.21.77-.31,1.35-.31,1.71,0,.02,0,.12.09.52.06.29.15.61.25.95.1.32.22.59.38.82.07.11.18.23.29.23.41,0,.92-.32,1.5-.96.64-.71,1.26-1.52,1.83-2.41.57-.88,1.07-1.75,1.49-2.59.51-1.03.58-1.33.58-1.4-.04-.39-.2-.9-.46-1.51-.14-.33-.44-.77-1.4-.77Z"/>
    </g>
    <g>
      <path d="M215.55,205.96c0,.39-.26.81-.79,1.24-.52.44-1.13.84-1.83,1.21-.7.37-1.41.69-2.13.95-.72.26-1.26.39-1.61.39-.39,0-.82-.11-1.28-.33-.46-.22-.9-.48-1.31-.79s-.77-.59-1.08-.85c-.31-.26-.5-.44-.59-.52-.13.13-.33.39-.59.79-.26.39-.58.82-.95,1.28-.37.46-.76.86-1.18,1.21-.42.35-.84.52-1.28.52-1.14,0-2.12-.61-2.95-1.83s-1.52-2.62-2.06-4.19c-.55-1.57-.96-3.09-1.25-4.55-.28-1.46-.42-2.46-.42-2.98,0-.31.16-.56.49-.75s.58-.3.75-.3c.61,0,1.03.21,1.24.62s.33.86.33,1.34c0,.39.12,1.09.36,2.09.24,1.01.54,2.03.89,3.08.35,1.05.72,1.98,1.11,2.78.39.81.74,1.21,1.05,1.21.57,0,1.06-.36,1.47-1.08.41-.72.75-1.55,1.02-2.49.26-.94.46-1.84.59-2.69.13-.85.19-1.41.19-1.67,0-.04.01-.18.03-.43.02-.24.05-.49.1-.75.04-.26.08-.5.1-.72.02-.22.03-.37.03-.46,0-.31-.07-.51-.2-.62s-.2-.34-.2-.69c0-.26.13-.51.39-.75s.83-.36,1.7-.36c.35,0,.62.1.82.29.19.2.34.43.42.69.09.26.14.51.16.75.02.24.03.41.03.49,0,.04-.02.35-.06.92-.05.57-.08,1.19-.1,1.87s-.05,1.32-.1,1.93c-.05.61-.07.98-.07,1.11s.07.39.2.79.29.8.49,1.21.43.78.69,1.11c.26.33.54.49.85.49.52,0,1.02-.08,1.47-.23.46-.15.9-.33,1.31-.52s.8-.37,1.15-.52c.35-.15.68-.23.98-.23.39,0,.75.09,1.08.26s.49.39.49.65Z"/>
      <path class="st3" d="M200.94,211.44c-1.26,0-2.35-.67-3.25-1.99-.84-1.24-1.55-2.68-2.1-4.28-.55-1.57-.97-3.12-1.26-4.6-.29-1.49-.43-2.49-.43-3.05,0-.3.12-.73.67-1.06.4-.24.69-.35.94-.35.94,0,1.37.44,1.56.82.24.47.37.97.37,1.51,0,.36.12,1.04.35,2.01.24.99.53,2.02.88,3.05.34,1.03.71,1.95,1.1,2.74.47.96.72,1.01.72,1.01.43,0,.81-.29,1.16-.9.4-.69.73-1.5.98-2.4.26-.93.45-1.82.58-2.65.16-1.02.19-1.44.19-1.61,0-.05.01-.2.03-.46.02-.25.06-.51.1-.78.04-.25.07-.48.09-.7.02-.2.03-.34.03-.42,0-.28-.07-.34-.07-.34-.22-.19-.33-.5-.33-.97,0-.37.17-.71.51-1.02.34-.31.96-.45,1.95-.45.45,0,.81.13,1.08.4.23.24.41.51.51.83.1.29.16.57.18.84.02.26.03.43.03.52,0,.04-.02.36-.07.94-.05.56-.08,1.18-.1,1.85-.02.68-.06,1.33-.1,1.94-.04.6-.07.96-.07,1.09,0,.03.01.17.18.67.13.38.29.78.47,1.17.18.38.4.73.65,1.04.19.24.38.35.57.35.48,0,.94-.07,1.36-.21.44-.14.86-.31,1.27-.51.42-.2.8-.37,1.16-.53.91-.4,1.71-.32,2.38.05.56.3.68.7.68.97,0,.51-.31,1.02-.92,1.52-.54.45-1.18.88-1.9,1.26-.7.37-1.43.7-2.17.97-.77.28-1.34.42-1.73.42-.44,0-.93-.12-1.43-.36-.48-.23-.94-.5-1.37-.82-.42-.31-.8-.6-1.1-.87-.12-.11-.23-.2-.32-.27-.08.11-.19.26-.33.46-.26.4-.59.84-.97,1.3-.37.47-.79.89-1.23,1.26-.48.4-.99.61-1.51.61ZM195.5,196.83s-.19.02-.57.24c-.28.17-.32.33-.32.44,0,.5.14,1.48.42,2.91.28,1.45.7,2.96,1.23,4.5.53,1.54,1.21,2.92,2.02,4.11.76,1.13,1.63,1.67,2.65,1.67.35,0,.69-.14,1.05-.44.4-.34.78-.73,1.13-1.16.37-.45.68-.87.93-1.25.28-.42.49-.69.64-.84l.26-.26.26.26c.08.08.27.25.57.5.3.25.65.54,1.06.84.39.29.82.54,1.25.75.41.19.79.29,1.12.29.3,0,.8-.13,1.48-.37.71-.26,1.41-.57,2.08-.93.67-.35,1.27-.75,1.77-1.17.43-.36.66-.69.66-.97,0-.04,0-.18-.3-.34-.48-.26-1.04-.33-1.75-.02-.35.15-.73.32-1.14.52-.43.21-.89.39-1.35.54-.49.16-1.02.25-1.59.25-.42,0-.8-.21-1.13-.63-.28-.35-.53-.75-.73-1.18-.2-.42-.37-.85-.51-1.26-.15-.46-.21-.73-.21-.9,0-.13.02-.51.07-1.14.04-.6.07-1.24.1-1.92.02-.68.06-1.31.1-1.88.04-.54.06-.83.06-.89,0-.08-.01-.23-.03-.46-.02-.21-.07-.43-.15-.67-.07-.21-.18-.39-.34-.55-.13-.13-.31-.19-.56-.19-1.05,0-1.37.19-1.46.27-.19.17-.28.33-.28.49,0,.33.07.41.07.41.21.18.32.48.32.9,0,.09-.01.26-.03.49-.02.23-.06.47-.1.74-.04.26-.08.5-.1.73-.02.22-.03.35-.03.4,0,.29-.07.87-.2,1.72-.13.85-.33,1.77-.6,2.73-.27.97-.62,1.83-1.05,2.57-.48.84-1.08,1.26-1.79,1.26-.47,0-.9-.44-1.37-1.41-.4-.82-.78-1.77-1.13-2.83-.35-1.05-.65-2.1-.89-3.11-.25-1.04-.37-1.75-.37-2.18s-.09-.81-.28-1.18c-.1-.18-.3-.43-.92-.43Z"/>
    </g>
    <g>
      <path d="M236.38,209.96c.04.09.07.22.07.39,0,.26-.2.65-.59,1.18-.13.18-.42.46-.85.85s-1.03.78-1.77,1.18c-.74.39-1.65.74-2.72,1.05-1.07.31-2.33.46-3.77.46-1,0-1.99-.23-2.95-.69-.96-.46-1.81-1.13-2.56-2.03-.74-.9-1.35-2.01-1.83-3.34s-.72-2.89-.72-4.68.22-3.3.66-4.78c.44-1.49.99-2.8,1.67-3.93.68-1.13,1.43-2.03,2.26-2.69.83-.65,1.64-.98,2.42-.98.7,0,1.41.14,2.13.42.72.28,1.38.64,1.96,1.08.59.44,1.06.93,1.41,1.47.35.55.52,1.1.52,1.67,0,.65-.29,1.33-.88,2.03s-1.3,1.34-2.13,1.93-1.66,1.07-2.49,1.44c-.83.37-1.49.56-1.97.56-.26,0-.49-.12-.69-.36-.2-.24-.3-.53-.3-.88,0-.61.27-1.09.82-1.44.54-.35,1.15-.67,1.8-.95.66-.28,1.26-.62,1.8-1.02.54-.39.82-.94.82-1.64,0-.09-.11-.3-.33-.65s-.81-.52-1.77-.52c-.44,0-.94.25-1.51.75-.57.5-1.11,1.18-1.64,2.03-.52.85-.96,1.86-1.31,3.01-.35,1.16-.53,2.41-.53,3.77,0,1.14.21,2.16.62,3.08s.95,1.69,1.6,2.32c.66.64,1.42,1.13,2.29,1.47.87.35,1.77.52,2.69.52.65,0,1.36-.14,2.13-.42.76-.28,1.49-.59,2.16-.92.68-.33,1.27-.63,1.77-.92s.82-.43.95-.43.27.07.43.2c.15.13.25.26.29.39Z"/>
      <path class="st3" d="M226.75,215.43c-1.05,0-2.1-.24-3.1-.72-1-.48-1.91-1.19-2.68-2.13-.77-.92-1.4-2.08-1.9-3.45-.49-1.36-.74-2.98-.74-4.81,0-1.73.23-3.37.67-4.88.44-1.51,1.02-2.86,1.71-4.01.69-1.17,1.48-2.1,2.34-2.79.89-.7,1.78-1.06,2.65-1.06.74,0,1.5.15,2.26.45.75.3,1.44.67,2.05,1.13.62.46,1.13.99,1.5,1.57.39.61.58,1.23.58,1.87,0,.74-.33,1.5-.97,2.26-.6.71-1.34,1.38-2.2,1.99-.85.6-1.71,1.1-2.55,1.48-.88.4-1.57.59-2.11.59-.26,0-.64-.09-.97-.49-.25-.31-.38-.68-.38-1.11,0-.74.33-1.33.99-1.74.56-.36,1.18-.69,1.85-.98.62-.27,1.21-.6,1.74-.98.45-.32.67-.76.67-1.34,0,0,0,0,0,0,0,0-.06-.12-.27-.47-.07-.11-.34-.35-1.46-.35-.35,0-.77.22-1.27.66-.54.48-1.07,1.13-1.57,1.95-.5.82-.93,1.8-1.27,2.93-.34,1.12-.51,2.35-.51,3.66,0,1.08.2,2.06.59,2.93.39.87.91,1.61,1.53,2.21.62.6,1.35,1.07,2.18,1.4.82.33,1.68.5,2.55.5.61,0,1.28-.13,2-.4.76-.28,1.48-.59,2.13-.9.71-.35,1.28-.64,1.75-.91.73-.42.98-.47,1.13-.47.22,0,.44.09.66.28.2.17.33.34.4.53.06.14.09.31.09.53,0,.35-.21.79-.66,1.4-.14.19-.43.48-.9.9-.46.41-1.06.82-1.84,1.23-.77.41-1.71.77-2.79,1.08-1.1.31-2.4.47-3.87.47ZM225.7,192.31c-.7,0-1.44.3-2.2.9-.79.63-1.52,1.5-2.17,2.59-.66,1.1-1.21,2.4-1.63,3.85-.43,1.44-.64,3.02-.64,4.68,0,1.74.24,3.28.7,4.56.46,1.29,1.06,2.37,1.77,3.23.71.85,1.53,1.5,2.43,1.94.91.43,1.85.65,2.79.65,1.4,0,2.64-.15,3.67-.44,1.04-.3,1.93-.64,2.65-1.02.72-.38,1.29-.76,1.69-1.13.42-.38.7-.65.8-.8.48-.64.52-.9.52-.96,0-.17-.03-.23-.03-.23l-.02-.04s-.06-.13-.19-.23c-.13-.11-.19-.11-.19-.11,0,0-.16.03-.77.38-.48.27-1.06.57-1.79.93-.68.33-1.42.64-2.2.93-.8.3-1.56.45-2.25.45-.96,0-1.91-.19-2.82-.55-.91-.36-1.72-.89-2.41-1.55-.68-.66-1.25-1.48-1.68-2.44-.43-.96-.66-2.05-.66-3.23,0-1.38.18-2.69.54-3.87.36-1.18.81-2.22,1.35-3.1.54-.88,1.12-1.59,1.71-2.11.64-.57,1.21-.84,1.75-.84,1.12,0,1.78.22,2.07.69.32.51.38.7.38.84,0,.82-.33,1.47-.97,1.93-.57.41-1.2.76-1.87,1.05-.63.27-1.22.59-1.75.92-.45.29-.65.65-.65,1.14,0,.27.07.48.21.65.17.2.31.23.41.23.43,0,1.04-.18,1.82-.53.8-.36,1.62-.83,2.43-1.4.81-.57,1.5-1.2,2.06-1.87.53-.63.8-1.23.8-1.8,0-.5-.15-.99-.47-1.48-.33-.5-.77-.97-1.32-1.38-.56-.41-1.19-.76-1.88-1.03-.68-.27-1.35-.4-2-.4Z"/>
    </g>
    <g>
      <path d="M258.39,187.23c-.57.65-1.38,1.3-2.42,1.93-1.05.64-2.1,1.21-3.14,1.74-1.05.52-1.97.97-2.75,1.34-.78.37-1.18.62-1.18.75s.09.52.26,1.18c.18.65.38,1.43.62,2.32.24.9.49,1.82.75,2.78.26.96.48,1.81.65,2.55.09.44.2,1.01.33,1.7.13.7.25,1.4.36,2.1.11.7.21,1.32.29,1.87.09.55.13.84.13.88,0,.66-.11,1.33-.33,2.03-.22.7-.57,1.05-1.05,1.05-.26,0-.5-.11-.72-.33-.22-.22-.42-.47-.59-.75-.18-.28-.31-.56-.39-.82-.09-.26-.13-.46-.13-.59,0-.09,0-.22.03-.39.02-.17.03-.37.03-.59,0-.83-.13-2.03-.39-3.6-.09-.48-.26-1.22-.52-2.23-.26-1-.52-2.03-.79-3.08-.31-1.22-.65-2.55-1.05-4-.18-.61-.28-.92-.33-.92-.31,0-.82.18-1.54.56-.72.37-1.54.83-2.46,1.37-.92.55-1.88,1.14-2.88,1.77s-1.94,1.22-2.82,1.77c-.87.55-1.63,1-2.26,1.38s-1.01.56-1.15.56c-.57,0-1.03-.2-1.37-.59-.35-.39-.53-.83-.53-1.31,0-.26.36-.64,1.08-1.15.72-.5,1.62-1.06,2.68-1.67,1.07-.61,2.23-1.24,3.47-1.9,1.24-.65,2.4-1.24,3.47-1.77,1.07-.52,2.32-1.13,3.77-1.83-.39-2.01-.72-3.8-.98-5.37-.22-1.36-.43-2.6-.62-3.73-.2-1.13-.29-1.75-.29-1.84,0-.57.12-.99.36-1.28.24-.28.51-.42.82-.42.48,0,.78.33.92.98.48,2.36.93,4.45,1.34,6.29.41,1.83.82,3.32,1.21,4.45.39-.09,1.07-.34,2.03-.75.96-.41,1.96-.86,3.01-1.34,1.05-.48,2-.91,2.85-1.28.85-.37,1.34-.56,1.48-.56.26,0,.42.09.49.26.07.18.14.33.23.46Z"/>
      <path class="st3" d="M250.92,211.83c-.36,0-.69-.15-.98-.44-.24-.24-.46-.52-.64-.82-.18-.3-.33-.6-.43-.89-.1-.3-.15-.53-.15-.71,0-.1,0-.24.03-.44.02-.17.03-.34.03-.55,0-.81-.13-2-.39-3.54-.09-.48-.26-1.22-.52-2.2-.26-1.01-.52-2.03-.79-3.08-.31-1.22-.65-2.55-1.05-3.99-.09-.31-.15-.5-.19-.62-.21.05-.57.18-1.16.49-.7.36-1.5.81-2.44,1.36-.91.55-1.87,1.13-2.87,1.76-1.01.63-1.94,1.22-2.82,1.77-.88.55-1.63,1.01-2.27,1.38-.95.56-1.18.61-1.33.61-.67,0-1.23-.24-1.65-.71-.41-.46-.62-.98-.62-1.55,0-.41.37-.84,1.24-1.44.72-.5,1.63-1.07,2.71-1.69,1.06-.6,2.23-1.25,3.48-1.91,1.29-.68,2.43-1.26,3.48-1.77,1.01-.49,2.18-1.06,3.52-1.71-.36-1.86-.67-3.57-.93-5.11-.22-1.36-.43-2.6-.62-3.73-.3-1.72-.3-1.84-.3-1.9,0-.65.15-1.16.45-1.51.31-.37.68-.55,1.1-.55.38,0,1.05.17,1.27,1.27.47,2.31.92,4.43,1.34,6.28.37,1.64.74,3.02,1.09,4.09.39-.12.94-.34,1.65-.65.96-.41,1.96-.86,3.01-1.34,1.05-.48,2-.91,2.85-1.28,1.24-.54,1.48-.59,1.62-.59.56,0,.76.31.83.49.06.17.12.29.19.38l.16.23-.19.21c-.59.68-1.44,1.35-2.51,2-1.05.63-2.12,1.22-3.17,1.75-1.05.53-1.97.98-2.76,1.35-.62.29-.86.45-.96.52.02.13.08.4.24.99l.62,2.32c.24.9.49,1.82.75,2.78.26.97.48,1.82.66,2.57.09.45.2,1.02.33,1.72.13.7.25,1.41.36,2.11.11.7.21,1.32.29,1.87.13.84.13.9.13.94,0,.69-.12,1.41-.34,2.14-.34,1.08-.94,1.3-1.39,1.3ZM246.07,193.81c.32,0,.41.24.67,1.18.4,1.45.74,2.78,1.05,4.01.26,1.05.53,2.07.79,3.08.26.99.44,1.75.53,2.25.27,1.58.4,2.81.4,3.67,0,.24-.01.45-.04.64-.02.15-.03.27-.03.34,0,.04.01.17.11.48.08.24.2.49.36.74.16.26.33.48.54.69.15.15.3.22.47.22.11,0,.45,0,.7-.8.21-.66.31-1.31.31-1.92,0-.05-.05-.33-.13-.83-.09-.55-.19-1.17-.29-1.87-.11-.69-.23-1.39-.36-2.08-.13-.69-.24-1.26-.33-1.7-.17-.73-.39-1.57-.65-2.53-.26-.96-.51-1.89-.75-2.79l-.62-2.32c-.24-.91-.27-1.16-.27-1.27,0-.29.2-.52,1.38-1.08.79-.37,1.7-.82,2.75-1.34,1.04-.52,2.08-1.1,3.12-1.72.91-.55,1.63-1.11,2.17-1.67-.04-.08-.08-.18-.12-.28,0,0-.03-.03-.15-.03-.03,0-.27.06-1.33.53-.85.37-1.8.79-2.84,1.27-1.05.48-2.06.93-3.02,1.35-.99.43-1.68.68-2.1.77l-.31.07-.11-.3c-.4-1.14-.81-2.66-1.22-4.49-.42-1.86-.87-3.98-1.34-6.3-.14-.69-.44-.69-.56-.69s-.32.03-.54.3c-.18.21-.27.57-.27,1.04,0,.03.03.28.29,1.77.2,1.14.4,2.38.62,3.74.27,1.6.6,3.41.98,5.36l.05.27-.25.12c-1.44.7-2.7,1.31-3.77,1.83-1.05.51-2.18,1.09-3.46,1.76-1.25.66-2.41,1.29-3.46,1.89-1.06.61-1.95,1.16-2.66,1.65-.87.61-.93.85-.93.86,0,.39.14.73.43,1.06.28.32.64.47,1.1.47,0,0,.2-.06.96-.51.63-.37,1.38-.83,2.25-1.37.87-.54,1.81-1.14,2.82-1.77,1.01-.63,1.97-1.23,2.89-1.77.95-.57,1.76-1.02,2.48-1.39.79-.41,1.33-.6,1.71-.6Z"/>
    </g>
    <g>
      <path d="M293.05,203.21c0,.79-.36,1.76-1.08,2.91-.72,1.16-1.69,2.28-2.92,3.37-1.22,1.09-2.64,2.02-4.26,2.78-1.62.77-3.3,1.15-5.04,1.15-.79,0-1.62-.13-2.49-.39-.87-.26-1.73-.64-2.56-1.15-.83-.5-1.57-1.11-2.23-1.83-.65-.72-1.13-1.54-1.44-2.46-.26.26-.58.7-.95,1.31-.37.61-.77,1.23-1.21,1.87-.44.64-.92,1.18-1.44,1.64-.52.46-1.07.69-1.64.69s-1.04-.3-1.41-.88c-.37-.59-.67-1.25-.89-1.97s-.37-1.41-.46-2.06c-.09-.65-.13-1.03-.13-1.11,0-.52.15-1.52.46-2.98.31-1.46.76-2.98,1.38-4.55.61-1.57,1.39-2.97,2.32-4.19.94-1.22,2.04-1.83,3.31-1.83.48,0,.8.21.95.62.15.41.23.82.23,1.21v1.97c.22.18.45.29.69.36.24.06.46.15.66.26.2.11.35.27.46.49s.17.57.17,1.05c0,.31-.02.58-.07.82-.05.24-.07.47-.07.69,0,1.13.09,2.25.26,3.34.17,1.09.52,2.06,1.05,2.91.52.85,1.25,1.55,2.16,2.1.92.55,2.14.82,3.67.82,1.92,0,3.55-.41,4.88-1.21,1.33-.81,2.45-1.7,3.34-2.68.89-.98,1.6-1.88,2.13-2.69.53-.81.96-1.21,1.31-1.21.57,0,.85.28.85.85ZM270.05,200.33c0-.17-.04-.34-.13-.49-.09-.15-.13-.29-.13-.43,0-.17.04-.33.13-.46s.13-.31.13-.52c0-.13-.04-.23-.13-.3-.09-.06-.13-.14-.13-.23-.39.09-.8.46-1.21,1.11-.41.66-.81,1.42-1.18,2.29-.37.87-.67,1.76-.89,2.65s-.33,1.63-.33,2.19c0,.31.09.81.26,1.51.17.7.37,1.16.59,1.38.74-1.53,1.43-3.01,2.06-4.45.63-1.44.95-2.86.95-4.26Z"/>
      <path class="st3" d="M279.74,213.79c-.82,0-1.69-.14-2.59-.41-.9-.27-1.78-.67-2.64-1.18-.85-.51-1.63-1.15-2.31-1.9-.54-.6-.98-1.27-1.29-2-.16.22-.33.48-.52.79-.37.61-.78,1.25-1.22,1.88-.45.66-.96,1.23-1.5,1.71-.59.51-1.22.78-1.87.78-.7,0-1.27-.35-1.71-1.05-.39-.61-.7-1.31-.93-2.05-.22-.73-.38-1.45-.47-2.12-.13-.99-.13-1.12-.13-1.16,0-.56.15-1.56.47-3.06.31-1.49.78-3.04,1.39-4.61.62-1.6,1.42-3.04,2.37-4.28,1.01-1.31,2.22-1.98,3.6-1.98.63,0,1.08.31,1.29.86.17.45.25.9.25,1.34v1.78c.14.09.28.16.42.2.25.07.5.16.73.29.26.15.47.37.61.65.14.28.2.67.2,1.21,0,.32-.02.61-.07.88-.04.22-.06.42-.06.62,0,1.11.09,2.22.26,3.28.16,1.04.5,1.97,1,2.78.49.8,1.18,1.46,2.04,1.98.85.51,2.03.77,3.48.77,1.84,0,3.42-.39,4.69-1.16,1.29-.79,2.39-1.67,3.26-2.62.88-.97,1.59-1.86,2.09-2.64.61-.94,1.12-1.38,1.61-1.38.77,0,1.21.44,1.21,1.21,0,.86-.37,1.88-1.14,3.11-.74,1.19-1.74,2.35-2.98,3.45-1.25,1.11-2.71,2.07-4.34,2.84-1.66.78-3.41,1.18-5.2,1.18ZM271.19,206.93l.19.56c.29.87.75,1.65,1.37,2.33.63.7,1.36,1.29,2.15,1.77.8.49,1.64.86,2.47,1.11.83.25,1.64.38,2.38.38,1.69,0,3.33-.37,4.89-1.11,1.58-.74,2.98-1.66,4.17-2.73,1.19-1.06,2.15-2.17,2.85-3.3.68-1.09,1.03-2.01,1.03-2.72,0-.37-.12-.49-.49-.49-.03,0-.35.03-1.01,1.05-.53.81-1.25,1.73-2.16,2.73-.92,1-2.07,1.93-3.42,2.75-1.39.84-3.09,1.27-5.07,1.27-1.59,0-2.89-.29-3.85-.87-.97-.57-1.74-1.32-2.29-2.22-.55-.89-.92-1.92-1.1-3.05-.18-1.11-.27-2.25-.27-3.4,0-.24.02-.5.07-.75.04-.22.06-.48.06-.75,0-.55-.08-.79-.13-.89-.08-.15-.18-.26-.31-.34-.18-.1-.37-.17-.57-.23-.29-.08-.57-.23-.82-.43l-.14-.11v-2.14c0-.35-.07-.71-.21-1.08-.1-.27-.28-.39-.61-.39-1.16,0-2.15.55-3.02,1.69-.91,1.19-1.68,2.57-2.27,4.1-.6,1.54-1.06,3.05-1.36,4.5-.3,1.43-.45,2.41-.45,2.91,0,.01,0,.16.13,1.07.08.64.23,1.31.45,2.01.21.69.49,1.32.85,1.88.63,1,1.63.88,2.5.12.5-.44.96-.96,1.38-1.57.43-.63.84-1.25,1.2-1.85.38-.63.72-1.09,1-1.38l.41-.41ZM267.14,209.66l-.36-.36c-.27-.27-.49-.77-.68-1.55-.18-.73-.27-1.26-.27-1.59,0-.59.11-1.36.34-2.28.22-.91.52-1.82.9-2.71.38-.89.78-1.67,1.2-2.34.47-.74.94-1.16,1.44-1.27l.44-.1v.45c.11.04.26.21.26.53,0,.29-.07.54-.19.73-.05.07-.07.15-.07.26,0,.07.03.15.08.25.12.21.18.43.18.67,0,1.44-.33,2.92-.98,4.41-.64,1.47-1.34,2.97-2.07,4.47l-.22.46ZM269.62,198.37c-.19.13-.44.37-.74.84-.4.64-.79,1.39-1.15,2.24-.36.86-.66,1.73-.87,2.6-.21.86-.32,1.57-.32,2.11,0,.19.04.59.25,1.42.07.29.14.52.21.69.62-1.29,1.21-2.57,1.76-3.83.61-1.39.92-2.78.92-4.11,0-.11-.03-.21-.08-.31-.12-.2-.18-.41-.18-.61,0-.25.06-.47.19-.66.05-.07.07-.18.07-.32-.02-.02-.05-.04-.07-.06Z"/>
    </g>
  </g>
  <g>
    <path class="st0" d="M108.87,76.03c-1.05.65-3.18,1.96-3.42,4.01-.19,1.6.96,2.12,2.3,4.91,1.89,3.94.84,5.48,2.49,7.39,1.74,2.01,4.53,2.19,6.27,2.33,2.24.18,4.39-.47,8.68-1.77,2.54-.77,3.83-1.17,4.58-1.77,2.19-1.76,2.63-4.35,3.45-7.55.63-2.46,1.08-4.31.08-5.95-1.2-1.97-3.75-2.39-4.34-2.49-2.23-.37-2.9.57-5.54.64-2.75.08-2.79-.92-6.03-1.29-1.43-.16-5.16-.54-8.52,1.53Z"/>
    <path class="st1" d="M135.39,75.23c1.2-1.05,2.17-.32,7.39-.48,2.94-.09,3.85-.36,7.23-.32,1.63.02,2.94.1,4.5.56.98.29,2.24.67,3.21,1.45,2.18,1.74,2.12,4.91,2.01,11.25-.08,4.25-.54,5.46-1.45,6.35-.1.09-1.63,1.56-3.78,1.45-2.23-.12-2.48-1.82-5.3-2.89-1.17-.44-1.17-.17-6.03-.64-4.65-.45-5.27-.76-5.7-1.04-2.07-1.32-2.8-3.66-3.21-4.98-.63-2.02-.54-3.68-.46-4.99.17-2.66.29-4.57,1.58-5.7Z"/>
    <path class="st0" d="M163.59,74.66c-2.35,1.21-3.07,4.31-3.37,5.62-.56,2.4.17,2.55-.16,6.43-.31,3.6-1.02,4.42-.32,5.95.68,1.51,2.06,2.21,3.7,3.05.86.44,3.65,1.83,7.39,1.53,2.05-.16,3.57-.83,6.59-2.17,3.12-1.38,4.68-2.07,5.71-3.1,3.44-3.45,3.1-8.62,2.97-10.56-.14-2.11-.28-4.24-1.85-5.54-.71-.59-1.51-.85-5.7-.96-5.4-.15-5.62.23-8.76,0-4.03-.29-4.73-.99-6.19-.24Z"/>
    <path class="st2" d="M203.87,88.68c.13-3.64,1.63-8.02-.5-11.33-.11-.17-.19-.35-.26-.52-3.06.1-5.2-.56-6.67-1.29-1.31-.65-2.56-1.56-4.5-1.53-.35,0-2.32.08-3.86,1.53-2.02,1.9-1.79,4.76-1.69,6.03.06.74.31,3.59,2.41,5.62,1.5,1.45,2.45,1.04,4.34,2.81,1.5,1.41,1.62,2.29,2.49,3.21,1.17,1.23,3.53,2.26,8.66,1.42-.27-1.98-.5-3.95-.43-5.96Z"/>
    <path class="st2" d="M190.3,90.01c-3.07-1.26-7.31,2.95-6.91,3.86.18.41,1.19-.07,4.94-.09,2.87-.02,3.84.25,4.18-.32.48-.82-.64-2.81-2.2-3.45Z"/>
    <path class="st2" d="M107.27,89.94c-.28-.21-1.68-1.24-3.46-1.88.35-.05.68-.16.97-.38.87-.65.46-1.64.64-6.83.13-3.58.38-4.56-.4-5.3-.79-.76-1.89-.57-4.58-.4-.44.03-.94.05-1.49.08-.12.1-.23.2-.37.29-.13.09-.27.19-.3.21-.09.08-.18.15-.27.23-.31.28-.58.59-.85.9-.02.02-.01.01-.03.03,0,.01,0,0-.01.03-.1.16-.22.32-.32.48-.21.33-.4.67-.58,1.02-.09.18-.17.36-.26.54,0,.02-.01.02-.02.03,0,.02-.01.04-.02.07-.15.43-.31.85-.43,1.29-.24.81-.4,1.64-.55,2.47,0,.03,0,.05-.01.06,0,.02,0,.04,0,.07-.03.26-.05.51-.08.77-.03.43-.06.86-.07,1.29-.02.85,0,1.71.07,2.56,0,0,0,0,0,0,1.67-.51,3.02-.52,3.99-.39.58.08,1.16.22,1.71.36-.44.04-.88.14-1.31.3-1.04.39-2.17,1.18-4.14,1.48.02.1.03.2.05.3.16.79.38,1.56.64,2.33.06.17.09.34.11.52,1.67.05,3.79.23,5.91.79,2.26.6,3.4.89,4.34,1.87.5.52.78,1.03,1.39,1.12.99.15,2.25-.87,2.52-1.98.44-1.86-1.99-3.73-2.78-4.34Z"/>
    <path class="st1" d="M111.42,96.72c-.35.3-.73.83-1.5,1.87-.92,1.26-1.38,1.88-1.55,2.46-.29.98.06,1.22.37,4.12.22,2,.07,2.02.32,2.84.25.81.47,1.01,1.34,2.84.88,1.86.71,1.76.91,1.98.98,1.08,2.56.53,7.23.27,3.02-.17,3.48,0,4.45-.54,1.89-1.03,2.62-3.01,2.95-3.91.75-2.04.19-4.52-.91-9.48-.24-1.07-.55-2.32-1.5-2.73-.7-.3-1.22.08-2.46.05-1.26-.02-1.69-.43-2.89-.75-1.87-.5-4.92-.62-6.75.96Z"/>
    <path class="st2" d="M133.11,91.68c-1.44-.2-2.37-.33-3.48-.11-.71.14-2.89.57-3.75,2.25-.68,1.34-.16,2.74.75,5.2.59,1.59.93,2.47,1.87,3.05.98.61,2.12.57,3.21.54,1.49-.05,1.41-.38,2.57-.37,1.45,0,1.74.53,4.23,1.02,1.1.21,1.66.32,2.09.16,1.18-.44.99-1.7,2.14-3.54,1.59-2.54,3.6-2.76,4.12-5.09.15-.65.08-1.05-.11-1.34-.39-.58-1.22-.58-2.79-.64-1.38-.05-2.75-.15-4.12-.21-1.76-.08-2.64-.12-3.59-.27-1.58-.24-1.67-.44-3.16-.64Z"/>
    <path class="st2" d="M135.87,105.34c-1.74-.73-1.73-1.36-2.73-1.5-1.41-.19-2.79.87-3.48,1.71-.79.95-.41,1.28-1.55,4.12-.64,1.58-.89,1.81-.75,2.36.21.83,1.22,1.35,3.21,2.36,1.19.6,1.8.9,2.25.86,1.25-.12,1.43-1.37,3.27-3.16,2.08-2.04,3.5-2.05,3.64-3.32.11-1.04-.73-2.05-1.34-2.52-.75-.58-1.13-.33-2.52-.91Z"/>
    <path class="st0" d="M149.42,96.61c-.44.48-.59,1.19-1.5,1.71-.77.44-1.18.24-1.66.75-.57.61-.35,1.26-.96,1.66-.38.25-.63.11-1.02.21-.96.27-1.24,1.66-1.87,3.7-1.06,3.4-1.49,3.42-1.34,4.55.04.28.32,2.12,1.77,3.11,1.31.89,2.37.25,5.78.21.78,0,3.21-.02,5.95.54,3.34.68,3.77,1.54,5.36,1.29,2.63-.42,4.21-3.2,4.77-4.18,2.62-4.6,2.28-11.59-.86-13.39-1.54-.88-2.07.45-6.32.16-4.05-.28-6.83-1.71-8.09-.32Z"/>
    <path class="st1" d="M195.13,95.35c-8.27.65-7.55-.08-10.2.64-2.7.74-3.52,1.51-5.87,1.45-1.44-.04-1.58-.34-3.21-.4-1.67-.06-4.57-.17-6.11,1.53-.37.41-.16.37-1.37,4.5-.4,1.38-.7,2.8-1.12,4.18-.37,1.2-.58,1.78-.4,2.57.29,1.24,1.33,1.98,1.61,2.17.66.47,2.31,1.35,6.75.32,2.91-.67,3.35-1.32,5.78-2.09,2.23-.7,3.1-.55,13.42-1.29,3.17-.23,4.32-.33,5.06-1.29.61-.79.4-1.43-.09-6.84-.29-3.21-.34-4.35-1.27-5.05-.78-.59-1.69-.5-2.97-.4Z"/>
    <path class="st2" d="M205.05,103.78c.19-2.79-.23-5.52-.63-8.25-2.03.23-2.92,1.08-3.27,1.5-.76.92-.61,1.72-.4,6.91.15,3.87.12,4.8.96,5.7.78.84,1.84,1.15,2.72,1.27.07-2.39.45-4.76.61-7.14Z"/>
    <path class="st0" d="M106.57,102.69c-.29-3.07-.28-3.26-.54-3.75-1.02-1.93-3.46-3.25-5.68-3.21-1.1.02-1.64.37-2.68.54-.52.09-.93.08-1.28.1-.23.01-.52.02-.8.02,0,.01.01.02.02.04.47,1.44-.54,3.16-2,3.52,0,0-.04,0-.07.02,0,.05.02.09.03.14.06.28.13.55.2.83.13.52.27,1.05.35,1.58.28,1.81-.02,3.44-.57,5.17-.06.19-.11.38-.17.57v1.33s.03.04.06.08c.54.56.79,1.26.8,1.96,2.11-.23,3.87-.05,5.26.3,2.6.65,3.59,1.6,4.93,1.07,1.72-.68,2.25-3.16,2.46-4.18.22-1.04.12-1.45-.32-6.11Z"/>
    <path class="st2" d="M204.5,113.51c-.9.09-2.04.09-3.29-.22-1.86-.46-2.35-1.2-4.28-1.61-1.9-.4-4.16-.24-4.29.32-.14.6,2.12,1.79,4.07,2.36,1.74.51,2.55.32,5.36.86,1.1.21,1.99.43,2.6.59-.06-.77-.12-1.54-.17-2.31Z"/>
    <path class="st2" d="M189.32,112.12c-.34-.51-1.38.35-3.75,0-1.17-.17-1.82-.51-2.36-.11-.6.45-.55,1.43-.54,1.61,0,.07.08,1.15.96,1.82,1.1.83,2.55.33,2.89.21,1.93-.67,3.24-2.86,2.79-3.54Z"/>
    <path class="st2" d="M204.83,119.03c0-.51-.03-1.02-.05-1.52-2.89.28-5.02-.17-6.45-.68-.68-.24-2.56-.99-5.25-1.71-1.57-.42-2.44-.57-3.11-.11-.93.66-.41,1.79-1.29,2.57-1.28,1.14-3.29-.48-4.5.54-.79.66-.67,2.01-.43,4.71.15,1.65.45,2.83.86,4.39.5,1.94.75,2.92,1.18,3.32.54.51,1.42.9,6.11.32,3.8-.47,4.57-.8,6.64-.96,1.29-.1,3.14-.12,5.4.2.33-3.69.9-7.37.89-11.06Z"/>
    <path class="st0" d="M166.5,114.69c-2.74.39-3.95.75-5.03,1.71-1.66,1.49-2.05,3.56-2.68,6.96-.46,2.47-.67,3.72,0,4.71.9,1.33,2.71,1.55,4.93,1.82,3.47.43,5.69-.27,5.78.11.09.36-1.8,1.68-4.07,1.71-2.64.04-3.88-1.67-5.14-.96-.88.49-1.38,1.95-.96,2.89.95,2.16,6.61,1.55,9,1.29,4.73-.51,9.75-1.06,12.1-4.82,1.16-1.85,1.2-3.72,1.29-7.07.1-4.09.16-6.33-1.29-7.93-1.94-2.14-5.93-1.57-13.93-.43Z"/>
    <path class="st1" d="M139.19,114.15c-.83.19-1.98.8-4.28,2.04-2.07,1.1-2.3,1.37-2.46,1.61-1.1,1.62-.61,4.53.96,5.78,1.18.94,2.22.36,6,.21,4.82-.19,7.62-.3,10.07,1.29,1.94,1.25,2.54,2.84,4.07,2.68,1.1-.12,2.06-1.07,2.46-2.04.6-1.43-.35-2.14-.32-4.39.03-2.67,1.38-3.28.86-4.61-.7-1.78-3.71-2.18-5.03-2.36-3.02-.4-3.42.65-6.86.43-3.11-.2-3.43-1.11-5.46-.64Z"/>
    <path class="st0" d="M127.51,114.69c-2.25-.93-4.22-.4-6.11-.11-3.11.48-2.21-.3-11.57-.21-3.08.03-4.49.12-5.68,1.18-.99.88-1.33,1.99-1.93,3.96-.76,2.49-1.26,4.12-.54,5.68.52,1.13,1.1.96,2.68,3.11,1.13,1.54.96,1.79,1.61,2.36,1.32,1.14,2.66.63,5.25.96,4.04.52,4.09,2.19,6.64,1.93,2.24-.23,2.16-1.51,5.57-2.57,2.9-.9,3.62-.17,5.03-1.18,1.85-1.31,2.23-3.69,2.57-5.78.29-1.84.89-5.57-1.39-7.93-.8-.82-1.68-1.2-2.14-1.39Z"/>
    <path class="st2" d="M99.45,116.19c-.85-1.11-2.18-1.53-2.79-1.71-.79-.25-1.5-.31-2.1-.3.05.37.04.75-.03,1.12-.02.13-.03.19-.04.23-.01.12-.02.23-.03.35-.02.26-.02.52-.02.77,0,.34.02.67.06,1.01,0,.08.04.36.06.46.17,1.1.35,2.2.54,3.29.23,1.29.37,2.58.42,3.89.02.58.04,1.16.08,1.73.02.26.05.52.07.78-.06-.61.09.5.11.62.06.33.06.65.03.96,1.43-.25,3.03-.82,3.85-2.17.46-.75.25-1.05.32-5.36.06-3.76.24-4.66-.54-5.68Z"/>
    <path class="st2" d="M99.23,130.33c.25-.03,4.37-.48,4.71.64.11.37-.53,1.04-1.82,2.36-1.48,1.52-1.94,1.66-2.25,1.71-.71.12-.79-.35-2.25-.64-1.18-.24-1.47-.03-1.98-.37-.6-.4-1.09-1.29-.91-1.98.34-1.29,2.89-1.53,4.5-1.71Z"/>
    <path class="st2" d="M125.26,132.36c-.05.08-.26.43-.21.86.07.7.75.95,1.87,1.93,1.16,1.02,1.1,1.34,1.55,1.39,1.14.14,2.81-1.7,2.46-3.21-.16-.69-.7-1.09-.96-1.29-1.49-1.1-4-.9-4.71.32Z"/>
    <path class="st2" d="M133.03,128.59c-.77,1.37-.57,3.52.48,4.26.49.34,1.05.3,2.65.08,2.92-.41,3.71-.64,4.5-.72,2.84-.29,3.22,1.64,7.31,2.57,1.3.29,5.27,1.2,7.23-.88.73-.78,1.32-2.12.88-3.13-.53-1.24-2.31-1.37-4.9-1.85-6.37-1.18-5.86-2.28-9.8-2.49-2.24-.12-6.94-.37-8.36,2.17Z"/>
    <path class="st2" d="M96.87,143.56c-.11-6.06-.73-7.26-1.61-8.03-.49-.43-1-.68-1.43-.84.13,1.18-.04,2.35-.21,3.54-.07.57-.11,1.13-.06,1.7.02.24-.02.48-.09.71v9.35c.73.08,1.69.04,2.44-.54.76-.59,1.05-1.53.96-5.89Z"/>
    <path class="st1" d="M109.97,135.42c1.89-.34,3.3,1.18,3.72.75.27-.27,0-1.15-.54-1.71-.31-.33-1.11-.96-4.28-.64-2.8.28-4.21.42-5.78,1.5-2.09,1.42-2.92,3.42-3.32,4.39-.36.86-1.3,3.23-.64,6.11.28,1.22.54,2.36,1.5,3.21,1.23,1.09,2.32.57,7.18.86,3.65.22,3.77.56,5.57.32,1.64-.22,2.37-.61,4.07-.54,1.49.06,1.94.4,3.54.75,1.81.39,5.71,1.24,7.18-.43.48-.55.25-.85.4-4.39.18-4.03.53-4.8-.19-5.68-.76-.93-1.6-.63-2.79-2.04-.75-.89-.61-1.25-1.29-1.71-1.17-.81-2.74-.52-3.21-.43-.86.16-.94.39-1.9.64-1.27.34-2.29.26-3,.21-4.41-.27-7.77.36-7.87-.21-.05-.3.81-.81,1.66-.96Z"/>
    <path class="st0" d="M132.84,135.31c-.68.35-.46,1.05-1.5,2.73-.71,1.16-.96,1.06-1.12,1.66-.3,1.12.52,1.61,1.18,3.7.55,1.75.67,3.58.7,4.07.07,1.28-.05,1.63.27,2.2.63,1.14,2.07,1.47,2.89,1.66,1.25.29,1.81.1,4.28,0,3.23-.13,3.12.15,3.7-.11,2.21-.99,2.55-4.59,2.89-8.09.28-2.88.56-5.76-.96-6.75-.8-.52-1.32-.02-3.43-.7-1.69-.54-1.74-.99-2.73-1.02-1.54-.04-1.78,1.03-3.43,1.07-1.49.04-1.94-.83-2.73-.43Z"/>
    <path class="st2" d="M149.5,136.68c-.52.15-1.9.58-1.93,1.23-.03.56.99.74,1.71,1.66,1.04,1.34.69,3.26.54,4.07-.43,2.29-1.62,2.65-1.87,5.09-.06.6-.2,1.94.43,2.3.54.31,1.1-.39,2.46-.86,1.93-.66,3.84-.27,5.68.11,1.61.33,1.54.56,2.52.59,1.82.06,2.19-.73,4.12-.91,2.18-.21,2.55.71,3.91.21,1.68-.62,2.41-2.48,2.68-3.16.65-1.64.46-3.09.32-4.07-.13-.94-.46-3.25-1.98-4.77-1.21-1.21-2.28-1-7.61-1.55-4.12-.42-7.49-.96-10.98.05Z"/>
    <path class="st0" d="M197.95,133.89c-.59-.68-2.81-.57-7.23-.32-3.15.18-3.89.35-5.14-.16-1.07-.44-1.7-1.04-2.73-.88-.96.15-1.16.78-2.33,1.45-1.25.71-1.75.4-3.62.88-1.7.44-3.38.87-4.5,2.25-1.25,1.53-1.22,3.51-1.21,4.26.03,1.8.67,2.08.72,4.18.05,2.02-.54,2.32-.16,3.21.89,2.13,4.96,2.24,5.38,2.25,2.82.05,5.08-1.23,6.03-1.77,1.75-.99,1.8-1.53,3.21-2.01,1.72-.59,2.66-.15,4.9-.08,2.03.06,6.25.19,7.39-1.77.76-1.29-.6-2.19-.8-5.78-.2-3.52.98-4.66.08-5.7Z"/>
    <path class="st1" d="M201.32,144.09c.82,2.65.93,3.29,1.61,4.02.72.77,1.58,1.11,2.16,1.28,0-.04,0-.09.01-.13v-7.39c-.17-2.15-.52-4.26-1.12-6.28-.13-.28-.21-.59-.24-.94-.07-.33-.1-.64-.07-.92-.75.09-1.67.35-2.51,1.05-.28.23-1.01.86-1.37,1.93-.15.44-.31,1.2.56,4.34.31,1.13.3.93.96,3.05Z"/>
    <path class="st2" d="M200.68,147.55c-1.05-.76-2.82.09-4.82,1.04-2.18,1.04-2.06,1.52-3.45,1.93-1.47.43-1.93-.01-5.3-.08-2.56-.05-3.84-.06-4.34.64-.72,1.03-.06,3.17,1.12,3.7.53.24.85,0,3.21-.64,1-.28,2.16-.59,3.37-.8,2-.35,1.9-.03,3.29-.32,2.5-.52,2.66-1.52,4.74-1.69,1.43-.12,1.96.31,2.49-.16.84-.74.7-2.87-.32-3.62Z"/>
    <path class="st0" d="M122.26,162.17c-.35-4.42-.53-6.63-2.04-7.93-.76-.66-2.04-.87-4.61-1.29-2.05-.33-3.94-.47-7.18-.54-3.53-.07-4.22.04-6.75,0-1.92-.03-4.71-.14-8.12-.53.38.51.63,1.14.7,1.79.17,1.44.24,2.89.32,4.34.04.72.07,1.44.12,2.17.03.36.05.72.09,1.08.02.2.04.4.06.59,0,.02.01.1.02.17.02.12.05.32.05.36.03.15.05.31.08.46.07.38.15.76.25,1.14.09.34.18.67.29,1,.04.13.22.55.26.66.28.56.57,1.11.92,1.63,0,0,0,0,0,0,.13.14.24.28.37.42.14.15.3.29.45.43,3.19,0,6.37.01,9.56.02,1.21-.13,2.17-.12,2.84-.08.52.03,1.07.09,1.98.11.51,0,.97,0,1.43-.02,5.14-.19,7.74-.26,8.68-1.5.51-.68.42-1.96.21-4.5Z"/>
    <path class="st1" d="M139.19,153.92c-3.66.22-4.37-1.31-8.46-1.5-1.8-.08-5.47-.26-6.86,1.82-.53.79-.49,2.06-.43,4.61.07,2.64.1,3.96.54,4.71,1.55,2.68,6.02,3.28,8.46,3.21,1.97-.05,2.83-.55,4.5,0,.82.27,1.05.51,1.05.51.79.44,1.05.71,1.6.83.42.09.79.05,1.04,0,2.83-.01,5.65-.03,8.48-.04,1.93-.06,2.77-.64,3.18-1.18.2-.27.12-.36.61-1.09.74-1.12,1.19-1.29,1.29-2.04.12-.98-.54-1.66-.96-2.36-1.72-2.82.8-5.31-.54-7.28-1.48-2.19-6.26-1.58-8.57-1.29-2.8.36-2.69.94-4.93,1.07Z"/>
    <path class="st0" d="M180.22,152.74c-1.19-.93-2.55-1.02-8.57-.54-2.76.22-3,.28-4.28.32-2.95.09-3.35-.19-5.03-.11-.47.02-7.02.4-8.03,3.43-.34,1.02.02,2.14.75,4.39.43,1.33.9,2.19.96,3.75.04,1.05-.16,1.14,0,1.61.14.44,1.54,1.75,5.15,2.43.11.02.19.03.21.04,2.53.08,5.06.15,7.6.23,5.72-.18,9.94-.86,10.4-1.73.18-.34.25-.66.25-.66.14-.86-.46-1.54-.04-3.83.69-3.8,2.8-5.28,2.04-7.5-.35-1-1.09-1.58-1.39-1.82Z"/>
    <path class="st2" d="M203.16,165.33c.5-.72.63-1.57.7-2.5.14-1.92.15-3.8.41-5.71.16-1.21.31-2.46.45-3.71-3.36-.84-5.38-.3-6.61.4-1.19.68-1.61,1.49-3.11,1.82-1.76.39-2.37-.45-4.07.11-1.12.37-1.04.8-2.68,1.5-1.5.64-1.7.33-2.68.86-1.33.71-2.02,1.85-2.78,3.11-.44.72-1.07,1.78-1.39,3.32-.26,1.23-.84,2.97-.11,3.54.19.15.42.18.58.18,5.79.02,11.57.04,17.36.06,1.45-.96,3.23-1.97,3.93-2.97Z"/>
  </g>
</svg>