<?xml version="1.0" encoding="UTF-8"?>
<svg id="Capa_1" xmlns="http://www.w3.org/2000/svg" version="1.1" viewBox="0 0 300 300">
  <!-- Generator: Adobe Illustrator 29.8.3, SVG Export Plug-In . SVG Version: 2.1.1 Build 3)  -->
  <defs>
    <style>
      .st0 {
        fill: #683b11;
      }
    </style>
  </defs>
  <g>
    <g>
      <path class="st0" d="M107.55,228.38c.1.06.8,1.98,2.09,5.78s2.16,6.24,2.62,7.33h.91c.08.21.12.41.12.6,0,.17-.03.29-.1.36s-.19.1-.36.1h-4.29c-.09-.23-.13-.45-.13-.65,0-.14.04-.25.11-.32s.19-.1.36-.1h.56c-.13-.61-.46-1.79-.99-3.54h-4.66c-.48,1.73-.77,2.91-.87,3.54h.96c.08.21.12.41.12.6,0,.17-.03.29-.1.36s-.19.1-.36.1h-3.8c-.08-.23-.12-.45-.12-.65,0-.14.04-.25.11-.32s.19-.1.36-.1h.6c.45-1.25,1.21-3.52,2.26-6.8s1.71-5.16,1.95-5.66.7-.74,1.35-.74c.78,0,1.22.03,1.32.09ZM108.02,236.62c-1.25-3.99-1.93-5.98-2.02-5.98s-.72,1.99-1.88,5.98h3.9Z"/>
      <path class="st0" d="M121.93,241.49c.08.21.12.41.12.6,0,.17-.03.29-.1.36s-.19.1-.36.1h-4.86c-.09-.23-.13-.45-.13-.65,0-.14.04-.25.11-.32s.19-.1.36-.1h.94c.06-.96.08-3.41.08-7.37,0-2.12-.03-3.65-.08-4.61h-1.2c-.08-.23-.12-.45-.12-.65,0-.14.04-.25.11-.32s.19-.1.36-.1h4.46c2.1,0,3.6.29,4.49.87s1.33,1.49,1.33,2.74c0,1.91-1.14,3.21-3.43,3.91.65.2,1.19.57,1.59,1.1s.84,1.3,1.29,2.29.81,1.6,1.06,1.82.63.33,1.1.32c.14.5.13.83-.05,1.01s-.62.26-1.33.26c-.82,0-1.41-.11-1.77-.32s-.73-.97-1.12-2.28-.8-2.22-1.24-2.75-1.06-.8-1.88-.8c-.43,0-.85.03-1.27.1.01,2.38.04,3.97.08,4.78h1.48ZM120.37,235.31h.87c1.2,0,2.11-.21,2.72-.63s.93-1.05.93-1.88c0-.98-.28-1.7-.84-2.16s-1.36-.69-2.4-.69c-.48,0-.88.03-1.2.1-.06.59-.08,1.99-.08,4.19v1.06Z"/>
      <path class="st0" d="M135.75,241.49c.06-.96.08-3.41.08-7.37,0-2.12-.03-3.56-.08-4.34-2.45.1-3.83.16-4.15.16s-.51-.05-.63-.14-.18-.28-.18-.55c0-.39.1-.81.29-1.26,1.17.31,2.87.47,5.1.47h6.46c.3,0,.52.05.64.15s.18.28.18.54c0,.48-.14.94-.42,1.37-1.15-.49-2.65-.73-4.49-.73h-.35c-.06.78-.08,2.27-.08,4.47,0,3.87.03,6.29.08,7.25h1.48c.08.21.12.41.12.6,0,.17-.03.29-.1.36s-.19.1-.36.1h-5.06c-.09-.23-.13-.45-.13-.65,0-.14.04-.25.11-.32s.19-.1.36-.1h1.15Z"/>
      <path class="st0" d="M151.85,228.45c.08.21.12.41.12.6,0,.17-.03.29-.1.36s-.19.1-.36.1h-.94c-.05.96-.07,2.54-.07,4.73,0,3.87.03,6.29.08,7.25h1.27c.08.21.12.41.12.6,0,.17-.03.29-.1.36s-.19.1-.36.1h-4.65c-.09-.23-.13-.45-.13-.65,0-.14.04-.25.11-.32s.19-.1.36-.1h.94c.06-.96.08-3.41.08-7.37,0-2.12-.03-3.65-.08-4.61h-1.27c-.09-.23-.13-.45-.13-.65,0-.14.04-.25.11-.32s.19-.1.36-.1h4.66Z"/>
      <path class="st0" d="M164.65,228.5c.58.18.87.52.87,1.02,0,.46-.19.87-.56,1.23-1.45-.66-2.79-.99-4.03-.99-.88,0-1.49.17-1.86.52s-.54.83-.54,1.44.22,1.15.65,1.53,1.25.76,2.45,1.14c1.43.43,2.51.92,3.24,1.47s1.12,1.45,1.16,2.69c0,1.39-.47,2.43-1.42,3.14s-2.4,1.06-4.35,1.06c-1.36,0-2.39-.1-3.09-.29s-1.05-.55-1.05-1.08c0-.48.2-.9.6-1.26,1.36.74,2.78,1.12,4.26,1.12,1.01,0,1.73-.17,2.16-.5s.64-.84.64-1.53c0-.83-.31-1.45-.93-1.86s-1.6-.83-2.95-1.26c-1.31-.4-2.24-.9-2.8-1.5s-.83-1.39-.83-2.37c0-1.22.45-2.19,1.36-2.91s2.21-1.08,3.9-1.08c1.5,0,2.53.09,3.11.26Z"/>
      <path class="st0" d="M177.21,228.38c.1.06.8,1.98,2.09,5.78s2.16,6.24,2.62,7.33h.91c.08.21.12.41.12.6,0,.17-.03.29-.1.36s-.19.1-.36.1h-4.29c-.09-.23-.13-.45-.13-.65,0-.14.04-.25.11-.32s.19-.1.36-.1h.56c-.13-.61-.46-1.79-.99-3.54h-4.66c-.48,1.73-.77,2.91-.87,3.54h.96c.08.21.12.41.12.6,0,.17-.03.29-.1.36s-.19.1-.36.1h-3.8c-.08-.23-.12-.45-.12-.65,0-.14.04-.25.11-.32s.19-.1.36-.1h.6c.45-1.25,1.21-3.52,2.26-6.8s1.71-5.16,1.95-5.66.7-.74,1.35-.74c.78,0,1.22.03,1.32.09ZM177.68,236.62c-1.25-3.99-1.93-5.98-2.02-5.98s-.72,1.99-1.88,5.98h3.9Z"/>
      <path class="st0" d="M190.22,228.45c1.11,2.01,2.16,3.83,3.14,5.48s2.05,3.62,3.21,5.91v-5.72c0-2.12-.02-3.65-.07-4.61h-1.06c-.09-.23-.13-.45-.13-.65,0-.14.04-.25.11-.32s.19-.1.36-.1h3.89c.08.21.12.41.12.6,0,.17-.03.29-.1.36s-.19.1-.36.1h-.84c-.05.96-.07,2.54-.07,4.73v7.47c0,.41-.06.66-.18.78s-.4.17-.84.17c-.85,0-1.35-.03-1.47-.1s-.96-1.35-2.51-3.84-2.84-4.83-3.89-7c0,5.55.02,8.81.07,9.77h1.01c.09.21.13.41.13.6,0,.17-.03.29-.1.36s-.19.1-.37.1h-3.85c-.09-.23-.13-.45-.13-.65,0-.14.04-.25.11-.32s.19-.1.36-.1h.87c.05-.96.07-3.41.07-7.37,0-2.12-.03-3.65-.08-4.61h-.98c-.09-.23-.13-.45-.13-.65,0-.14.04-.25.11-.32s.19-.1.36-.1h3.29Z"/>
    </g>
    <path class="st0" d="M63.83,217.16c1.54,1.6,2.31,3.27,2.31,5.02,0,1.63-1.88,2.93-5.63,3.9-3.75.97-8.26,1.46-13.52,1.46-8.41,0-14.6-1.98-18.58-5.93-3.98-3.95-5.98-11.14-5.98-21.55,0-11.6,2.34-20.14,7.02-25.61,4.68-5.47,11.57-8.2,20.68-8.2,5.06,0,8.88.41,11.47,1.22,2.59.81,3.88,2.2,3.88,4.14,0,1.6-.8,3.18-2.4,4.75-5.23-2.5-10.25-3.75-15.05-3.75s-8.67,1.78-11.17,5.34c-2.5,3.56-3.75,9.59-3.75,18.08,0,9.39,1.32,15.93,3.95,19.61,2.63,3.68,6.9,5.52,12.8,5.52,5.18,0,9.83-1.34,13.96-4.01Z"/>
    <path class="st0" d="M78.62,215.02c-2.97-3.34-4.45-8.39-4.45-15.14,0-7.77,1.8-13.8,5.39-18.1,3.59-4.3,8.78-6.46,15.55-6.46,6.31,0,10.95,1.67,13.92,5.02,2.97,3.34,4.45,8.41,4.45,15.18,0,7.74-1.8,13.76-5.39,18.06-3.59,4.3-8.78,6.46-15.55,6.46-6.31,0-10.95-1.67-13.92-5.02ZM101.39,210.44c1.48-2.5,2.22-6.35,2.22-11.56,0-5.99-.76-10.44-2.29-13.35-1.53-2.91-4.15-4.36-7.87-4.36-3.32,0-5.72,1.25-7.2,3.75-1.48,2.5-2.22,6.37-2.22,11.6,0,5.96.76,10.4,2.29,13.31,1.53,2.91,4.15,4.36,7.87,4.36,3.32,0,5.72-1.25,7.2-3.75Z"/>
    <path class="st0" d="M133.33,215.52c-3.03-3.01-4.54-8.15-4.54-15.42,0-8.06,1.9-14.2,5.71-18.43,3.81-4.23,9.61-6.35,17.41-6.35,3.81,0,6.57.36,8.29,1.07,1.72.71,2.59,1.78,2.62,3.21,0,1.74-.61,3.4-1.83,4.97-4.36-2.27-8.09-3.4-11.17-3.4-4.04,0-6.91,1.29-8.62,3.86-1.7,2.57-2.55,6.61-2.55,12.11s.83,9.9,2.49,12.76c1.66,2.86,4.68,4.3,9.07,4.3,3.34,0,7.23-1.12,11.65-3.36.96,1.34,1.44,2.7,1.44,4.1,0,1.66-1.5,2.92-4.51,3.8-3.01.87-6.41,1.31-10.19,1.31-7.15,0-12.24-1.51-15.27-4.51Z"/>
    <path class="st0" d="M182.54,215.02c-2.97-3.34-4.45-8.39-4.45-15.14,0-7.77,1.8-13.8,5.39-18.1,3.59-4.3,8.78-6.46,15.55-6.46,6.31,0,10.95,1.67,13.92,5.02,2.97,3.34,4.45,8.41,4.45,15.18,0,7.74-1.8,13.76-5.39,18.06-3.59,4.3-8.78,6.46-15.55,6.46-6.31,0-10.95-1.67-13.92-5.02ZM205.31,210.44c1.48-2.5,2.22-6.35,2.22-11.56,0-5.99-.76-10.44-2.29-13.35-1.53-2.91-4.15-4.36-7.87-4.36-3.32,0-5.72,1.25-7.2,3.75-1.48,2.5-2.22,6.37-2.22,11.6,0,5.96.76,10.4,2.29,13.31,1.53,2.91,4.15,4.36,7.87,4.36,3.32,0,5.72-1.25,7.2-3.75Z"/>
    <path class="st0" d="M251.37,226c-3.56,1.03-7.06,1.54-10.48,1.54-5.43,0-9.48-1.28-12.14-3.83-2.66-2.56-3.99-6.35-3.99-11.38,0-6.16,2.19-10.87,6.58-14.13,4.39-3.26,11.17-4.89,20.35-4.89,3.26.04,6.52.09,9.77.13.2-2.19.64-5.11.58-9.82.06-4.35-1.12-6.33-2.7-8.11-2.5-2.82-7.04-3.4-11.35-3.7-2.97-.21-5.43.04-7.11.29.05.45.19,3.85-2.11,5.59-.95.72-2.06.69-3.47,1.06-2.09.54-3.55.44-4.38-.3-.83-.74-1.45-.97-2.32-2.94-.87-1.97-1.3-3.56-1.3-4.77,0-.8.33-1.43,1-1.87.66-.44,3.37-.99,8.12-1.63,4.75-.64,9.8-.97,15.16-.97,7.13,0,12.39,1.23,15.79,3.68,3.4,2.46,5.1,6.97,5.1,13.53v18.6c0,8.62.37,13.87,1.12,15.76.74,1.89,1.98,2.66,3.71,2.29.48.89.72,1.75.72,2.6,0,1.37-.86,2.42-2.57,3.14-1.71.72-4.01,1.09-6.91,1.09-1.41,0-2.49-.17-3.23-.51-.74-.34-1.92-1.98-3.53-4.92-3.38,1.97-6.85,3.47-10.42,4.5ZM261.55,199.69c-6.18-.82-11.37-.86-15.19-.71-8.51.34-10.5,1.74-11.77,2.8-2.24,1.87-3.36,4.82-3.36,8.85s1,6.9,2.99,8.89c1.99,1.99,5.08,2.99,9.26,2.99,3.88,0,7.02-1.12,9.07-1.92,1.23-.48,2.73-1.06,3.91-1.86,5.14-3.51,5.1-11.93,5.04-14.11.02-1.64.03-3.29.05-4.93Z"/>
  </g>
  <path class="st0" d="M214.35,77.98c-.29-3.16-3.17-6.53-5.5-6.28-3.8.42-2.4,10.08-8.92,14.29-3.66,2.36-7.77,1.69-10.61,1.68.07-.89.07-1.79-.05-2.67-2.12-15.8-35.98-26.85-60.25-21.77-18.94,3.96-35.24,18.41-36.4,19.51-.5.47-1.52,1.67-3.78,3.86-.15.15-.65.75-1.41,1.48-.28.27-.39.36-.48.44-.95.93-1.22,3.3-.31,5.02.52.99,1.11,1.16,2.58,2.33,2.24,1.77,3.38,3.42,3.82,3.85.71.69,8.02,6.96,18.98,12.17,3.14.09,19.42,4.84,39.27-1.15,15.26-4.61,24.26-13.04,24.98-12.05.77,1.06-8.31,12.28-22.15,17.34-19.09,6.98-38.8-.85-42.15-3.39-6,8.45-9.09,16.39-9.09,19.78,0,1.95,1,6.63-1.55,11.35-1.07,1.99-2.47,3.4-2.04,5.28.46,2.04,2.76,3.36,4.44,3.86,2.58.77,3.99-.33,6.58-.41,4.39-.14,7.63,2.77,8.89,3.65,6.3,4.4,33.4,7.07,54.42-7.19,15.19-10.3,33.07-33.42,25.17-49.72-.72-1.48-1.61-2.82-2.65-4.04,2.47-1.16,5.22-3.19,8.4-5.54,6.06-4.49,10.18-7.55,9.8-11.68ZM129.15,86.96c-2.7.51-6.7,1.37-11.44,2.86-8.27,2.59-12.36,5.06-12.66,4.54-.39-.67,6.14-5.65,14.22-8.99,1.78-.74,9.76-4.04,11.06-2.12.58.86-.35,2.5-1.18,3.71ZM138.9,71.36c-13.77,1.67-23.16,6.82-23.35,6.35-.19-.48,8.97-6.4,21.25-8.39,17.73-2.88,32.55,3.95,32.44,4.47-.1.48-12.74-4.56-30.35-2.43ZM179.31,135.22c-18.1,15.38-44.16,12.39-44.4,10.85-.2-1.29,17.73-.84,36.91-13.69,13.79-9.23,20.34-20.06,21.53-19.17,1.2.9-3.73,13.24-14.04,22Z"/>
</svg>