<?xml version="1.0" encoding="UTF-8"?>
<svg id="Capa_1" xmlns="http://www.w3.org/2000/svg" version="1.1" xmlns:xlink="http://www.w3.org/1999/xlink" viewBox="0 0 300 300">
  <!-- Generator: Adobe Illustrator 29.8.3, SVG Export Plug-In . SVG Version: 2.1.1 Build 3)  -->
  <defs>
    <style>
      .st0 {
        fill: #fcc00d;
      }

      .st1 {
        font-family: Impact, Impact;
        font-size: 36px;
      }

      .st2 {
        fill: #fff;
      }

      .st3 {
        filter: url(#drop-shadow-1);
      }
    </style>
    <filter id="drop-shadow-1" x="-35" y="15" width="363" height="308" filterUnits="userSpaceOnUse">
      <feOffset dx="7" dy="7"/>
      <feGaussianBlur result="blur" stdDeviation="5"/>
      <feFlood flood-color="#000" flood-opacity=".75"/>
      <feComposite in2="blur" operator="in"/>
      <feComposite in="SourceGraphic"/>
    </filter>
  </defs>
  <rect class="st2" width="300" height="300"/>
  <g>
    <path class="st0" d="M434.01-104.15c66.72,117.19,133.45,234.37,200.17,351.56-22.12,4.91-44.23,9.83-66.35,14.74-64.93-113.01-129.86-226.03-194.79-339.04,20.32-9.09,40.65-18.17,60.97-27.26Z"/>
    <g>
      <path d="M426.34-75.71l6.33,10.59-4.89,2.92-2.54-4.24-4.63,2.77,2.37,3.97-4.65,2.78-2.37-3.97-5.37,3.21,2.79,4.66-4.89,2.92-6.59-11.01,24.43-14.61Z"/>
      <path d="M442.5-48.69l-24.43,14.61-3.33-5.57,9.13-9.94-11.1,6.64-3.18-5.31,24.43-14.61,3.18,5.31-8.87,10.14,11-6.58,3.18,5.31Z"/>
      <path d="M447.28-40.69l3.83,6.4c1.03,1.73,1.69,3.14,1.98,4.23s.31,2.03.08,2.8-.66,1.46-1.29,2.06-1.71,1.36-3.24,2.27l-2.13,1.27c-1.56.93-2.79,1.45-3.7,1.56s-1.81-.16-2.7-.79-1.76-1.64-2.59-3.03l-1.02-1.7-9.84,5.88-3.8-6.35,24.43-14.61ZM446.9-31.84l-6.22,3.72c.1.19.19.35.26.48.35.58.73.9,1.16.96s1.09-.19,1.99-.73l2.01-1.2c.83-.5,1.3-.95,1.39-1.37s-.1-1.03-.6-1.85Z"/>
      <path d="M456.55-25.18l2.69,4.5c1.79,3,2.89,5.1,3.29,6.29s.33,2.42-.22,3.65-1.87,2.48-3.95,3.72c-1.9,1.14-3.32,1.66-4.26,1.58s-1.88-.78-2.85-2.09c.44,1.44.53,2.54.26,3.28s-.58,1.3-.96,1.67-1.55,1.14-3.52,2.32l-6.44,3.85-3.53-5.9,8.12-4.85c1.31-.78,2.06-1.37,2.24-1.76s.02-1.03-.5-1.9l-11.01,6.59-3.8-6.35,24.43-14.61ZM456.17-16.33l-5.43,3.25c.43.71.82,1.16,1.19,1.33s1.09-.07,2.17-.71l1.34-.8c.77-.46,1.2-.91,1.28-1.33s-.11-1-.54-1.73Z"/>
      <path d="M460.88,14.53c-2.45,1.47-4.23,2.45-5.32,2.94-1.09.49-2.24.69-3.45.59s-2.35-.54-3.42-1.3-2.02-1.84-2.84-3.21c-.78-1.31-1.27-2.61-1.47-3.91-.2-1.3-.05-2.52.42-3.66s1.18-2.08,2.11-2.8,2.66-1.83,5.17-3.34l4.18-2.5c2.45-1.47,4.23-2.45,5.32-2.94s2.24-.69,3.45-.59,2.35.54,3.42,1.3,2.02,1.84,2.84,3.21,1.27,2.61,1.47,3.91c.2,1.3.05,2.52-.42,3.66s-1.18,2.08-2.11,2.8-2.66,1.83-5.17,3.34l-4.18,2.5ZM465.11,3.37c1.14-.68,1.83-1.18,2.07-1.49s.25-.67.01-1.06c-.2-.33-.48-.51-.84-.53s-1.17.34-2.43,1.09l-11.41,6.82c-1.42.85-2.26,1.43-2.52,1.74s-.27.68-.02,1.1.62.59,1.07.49,1.4-.59,2.84-1.45l11.22-6.71Z"/>
      <path d="M474.83,29.53l-3.8-6.35,4.25-2.54c1.23-.74,1.96-1.27,2.19-1.59s.2-.71-.08-1.17c-.31-.52-.7-.74-1.15-.66s-1.3.49-2.54,1.23l-11.35,6.78c-1.19.71-1.92,1.24-2.2,1.6s-.27.78.03,1.28.65.67,1.1.6,1.35-.51,2.69-1.31l3.07-1.84,3.8,6.35-.95.57c-2.53,1.51-4.43,2.41-5.7,2.68-1.27.28-2.67.04-4.2-.71-1.53-.75-2.82-2.01-3.9-3.8s-1.69-3.6-1.74-5.21c-.05-1.61.41-2.97,1.36-4.07s2.63-2.37,5.03-3.8l7.14-4.27c1.76-1.05,3.12-1.78,4.07-2.19s2.01-.55,3.19-.44c1.17.11,2.31.56,3.41,1.34s2.07,1.86,2.89,3.24c1.12,1.87,1.68,3.63,1.68,5.28,0,1.65-.42,2.99-1.27,4.02-.85,1.03-2.42,2.22-4.7,3.59l-2.32,1.39Z"/>
      <path d="M486.83,25.45l6.33,10.59-4.89,2.92-2.54-4.24-4.63,2.77,2.37,3.97-4.65,2.78-2.37-3.97-5.37,3.21,2.79,4.66-4.89,2.92-6.59-11.01,24.43-14.61Z"/>
      <path d="M495.16,56.17l-3.53-5.9,1.81-1.08c.84-.51,1.34-.9,1.48-1.19s.11-.61-.1-.96c-.23-.38-.56-.58-.99-.59s-.96.18-1.59.55c-.82.49-1.36.96-1.64,1.43-.29.46-.43,1.35-.42,2.69.01,3.83-.3,6.43-.94,7.81s-2.15,2.78-4.55,4.21c-1.74,1.04-3.14,1.6-4.21,1.69s-2.23-.29-3.49-1.12-2.35-2.02-3.27-3.57c-1.02-1.7-1.56-3.34-1.64-4.93s.27-2.86,1.05-3.83c.77-.97,2.08-2,3.91-3.09l1.6-.96,3.53,5.9-2.97,1.78c-.92.55-1.45.98-1.62,1.3s-.12.69.14,1.12.61.64,1.06.65,1.01-.18,1.66-.57c1.44-.86,2.26-1.62,2.47-2.28.2-.67.35-2.1.44-4.3.1-2.2.24-3.7.4-4.5s.57-1.61,1.2-2.45,1.6-1.64,2.9-2.42c1.87-1.12,3.38-1.7,4.53-1.74s2.29.33,3.41,1.1,2.14,1.92,3.04,3.42c.99,1.65,1.56,3.21,1.72,4.69.16,1.48-.05,2.65-.63,3.51s-1.85,1.87-3.79,3.03l-.97.58Z"/>
      <path d="M498.44,77.33c-2.45,1.47-4.23,2.45-5.32,2.94s-2.24.69-3.45.59-2.35-.54-3.42-1.3-2.02-1.84-2.84-3.21c-.78-1.31-1.27-2.61-1.47-3.91s-.05-2.52.42-3.66,1.18-2.08,2.11-2.8,2.66-1.83,5.17-3.34l4.18-2.5c2.45-1.47,4.23-2.45,5.32-2.94s2.24-.69,3.45-.59,2.35.54,3.42,1.3,2.02,1.84,2.84,3.21,1.27,2.61,1.47,3.91.05,2.52-.42,3.66-1.18,2.08-2.11,2.8-2.66,1.83-5.17,3.34l-4.18,2.5ZM502.66,66.18c1.14-.68,1.83-1.18,2.07-1.49s.25-.67.01-1.06c-.2-.33-.48-.51-.84-.53s-1.17.34-2.43,1.09l-11.41,6.82c-1.42.85-2.26,1.43-2.52,1.74s-.27.68-.02,1.1.62.59,1.07.49,1.4-.59,2.84-1.45l11.22-6.71Z"/>
    </g>
    <g>
      <path d="M537.43,117.71l6.33,10.59-4.89,2.92-2.54-4.24-4.63,2.77,2.37,3.97-4.65,2.78-2.37-3.97-5.37,3.21,2.79,4.66-4.89,2.92-6.59-11.01,24.43-14.61Z"/>
      <path d="M553.59,144.73l-24.43,14.61-3.33-5.57,9.13-9.94-11.1,6.64-3.18-5.31,24.43-14.61,3.18,5.31-8.87,10.14,11-6.58,3.18,5.31Z"/>
      <path d="M558.37,152.73l3.83,6.4c1.03,1.73,1.69,3.14,1.98,4.23s.31,2.03.08,2.8-.66,1.46-1.29,2.06-1.71,1.36-3.24,2.27l-2.13,1.27c-1.56.93-2.79,1.45-3.7,1.56s-1.81-.16-2.7-.79-1.76-1.64-2.59-3.03l-1.02-1.7-9.84,5.88-3.8-6.35,24.43-14.61ZM557.99,161.58l-6.22,3.72c.1.19.19.35.26.48.35.58.73.9,1.16.96s1.09-.19,1.99-.73l2.01-1.2c.83-.5,1.3-.95,1.39-1.37s-.1-1.03-.6-1.85Z"/>
      <path d="M567.65,168.23l2.69,4.5c1.79,3,2.89,5.1,3.29,6.29s.33,2.42-.22,3.65c-.55,1.24-1.87,2.48-3.95,3.72-1.9,1.14-3.32,1.66-4.26,1.58s-1.88-.78-2.85-2.09c.44,1.44.53,2.54.26,3.28s-.58,1.3-.96,1.67-1.55,1.14-3.52,2.32l-6.44,3.85-3.53-5.9,8.12-4.85c1.31-.78,2.06-1.37,2.24-1.76s.02-1.03-.5-1.9l-11.01,6.59-3.8-6.35,24.43-14.61ZM567.26,177.08l-5.43,3.25c.43.71.82,1.16,1.19,1.33s1.09-.07,2.17-.71l1.34-.8c.77-.46,1.2-.91,1.28-1.33s-.11-1-.54-1.73Z"/>
      <path d="M571.97,207.94c-2.45,1.47-4.23,2.45-5.32,2.94-1.09.49-2.24.69-3.45.59s-2.35-.54-3.42-1.3-2.02-1.84-2.84-3.21-1.27-2.61-1.47-3.91c-.2-1.3-.05-2.52.42-3.66s1.18-2.08,2.11-2.8,2.66-1.83,5.17-3.34l4.18-2.5c2.45-1.47,4.23-2.45,5.32-2.94s2.24-.69,3.45-.59c1.21.1,2.35.54,3.42,1.3s2.02,1.84,2.84,3.21,1.27,2.61,1.47,3.91c.2,1.3.05,2.52-.42,3.66s-1.18,2.08-2.11,2.8-2.66,1.83-5.17,3.34l-4.18,2.5ZM576.2,196.79c1.14-.68,1.83-1.18,2.07-1.49s.25-.67.01-1.06c-.2-.33-.48-.51-.84-.53s-1.17.34-2.43,1.09l-11.41,6.82c-1.42.85-2.26,1.43-2.52,1.74s-.27.68-.02,1.1.62.59,1.07.49,1.4-.59,2.84-1.45l11.22-6.71Z"/>
      <path d="M585.92,222.95l-3.8-6.35,4.25-2.54c1.23-.74,1.96-1.27,2.19-1.59s.2-.71-.08-1.17c-.31-.52-.7-.74-1.15-.66s-1.3.49-2.54,1.23l-11.35,6.78c-1.19.71-1.92,1.24-2.2,1.6s-.27.78.03,1.28.65.67,1.1.6,1.35-.51,2.69-1.31l3.07-1.84,3.8,6.35-.95.57c-2.53,1.51-4.43,2.41-5.7,2.68-1.27.28-2.67.04-4.2-.71-1.53-.75-2.82-2.01-3.9-3.8s-1.69-3.6-1.74-5.21c-.05-1.61.41-2.97,1.36-4.07s2.63-2.37,5.03-3.8l7.14-4.27c1.76-1.05,3.12-1.78,4.07-2.19s2.01-.55,3.19-.44c1.17.11,2.31.56,3.41,1.34s2.07,1.86,2.89,3.24c1.12,1.87,1.68,3.63,1.68,5.28,0,1.65-.42,2.99-1.27,4.02-.85,1.03-2.42,2.22-4.7,3.59l-2.32,1.39Z"/>
      <path d="M597.92,218.86l6.33,10.59-4.89,2.92-2.54-4.24-4.63,2.77,2.37,3.97-4.65,2.78-2.37-3.97-5.37,3.21,2.79,4.66-4.89,2.92-6.59-11.01,24.43-14.61Z"/>
      <path d="M606.25,249.58l-3.53-5.9,1.81-1.08c.84-.51,1.34-.9,1.48-1.19s.11-.61-.1-.96c-.23-.38-.56-.58-.99-.59s-.96.18-1.59.55c-.82.49-1.36.96-1.64,1.43-.29.46-.43,1.35-.42,2.69.01,3.83-.3,6.43-.94,7.81s-2.15,2.78-4.55,4.21c-1.74,1.04-3.14,1.6-4.21,1.69s-2.23-.29-3.49-1.12-2.35-2.02-3.27-3.57c-1.02-1.7-1.56-3.34-1.64-4.93s.27-2.86,1.05-3.83,2.08-2,3.91-3.09l1.6-.96,3.53,5.9-2.97,1.78c-.92.55-1.45.98-1.62,1.3s-.12.69.14,1.12.61.64,1.06.65,1.01-.18,1.66-.57c1.44-.86,2.26-1.62,2.47-2.28.2-.67.35-2.1.44-4.3.1-2.2.24-3.7.4-4.5s.57-1.61,1.2-2.45,1.6-1.64,2.9-2.42c1.87-1.12,3.38-1.7,4.53-1.74s2.29.33,3.41,1.1,2.14,1.92,3.04,3.42c.99,1.65,1.56,3.21,1.72,4.69s-.05,2.65-.63,3.51-1.85,1.87-3.79,3.03l-.97.58Z"/>
      <path d="M609.53,270.75c-2.45,1.47-4.23,2.45-5.32,2.94s-2.24.69-3.45.59-2.35-.54-3.42-1.3-2.02-1.84-2.84-3.21c-.78-1.31-1.27-2.61-1.47-3.91s-.05-2.52.42-3.66,1.18-2.08,2.11-2.8,2.66-1.83,5.17-3.34l4.18-2.5c2.45-1.47,4.23-2.45,5.32-2.94s2.24-.69,3.45-.59,2.35.54,3.42,1.3,2.02,1.84,2.84,3.21,1.27,2.61,1.47,3.91.05,2.52-.42,3.66-1.18,2.08-2.11,2.8-2.66,1.83-5.17,3.34l-4.18,2.5ZM613.76,259.6c1.14-.68,1.83-1.18,2.07-1.49s.25-.67.01-1.06c-.2-.33-.48-.51-.84-.53s-1.17.34-2.43,1.09l-11.41,6.82c-1.42.85-2.26,1.43-2.52,1.74s-.27.68-.02,1.1.62.59,1.07.49,1.4-.59,2.84-1.45l11.22-6.71Z"/>
    </g>
  </g>
  <rect class="st0" x="-142.43" y="120.92" width="87.28" height="58.15"/>
  <text class="st1" transform="translate(-244.94 -15.06)"><tspan x="0" y="0">EN PROCESO</tspan></text>
  <g>
    <path class="st0" d="M0,25.08s300,101.28,300,101.28h0v71.79C200,164.99,100,131.83,0,98.67V25.08Z"/>
    <g>
      <path d="M13.2,51.41l11.77,3.69-1.7,5.43-4.71-1.48-1.61,5.15,4.41,1.38-1.62,5.17-4.41-1.38-1.87,5.97,5.18,1.63-1.7,5.43-12.24-3.84,8.52-27.16Z"/>
      <path d="M43.24,60.83l-8.52,27.16-6.19-1.94.2-13.5-3.87,12.34-5.9-1.85,8.52-27.16,5.9,1.85.12,13.47,3.83-12.23,5.9,1.85Z"/>
      <path d="M52.13,63.62l7.11,2.23c1.92.6,3.35,1.22,4.29,1.84s1.58,1.31,1.92,2.04.48,1.53.41,2.4-.37,2.15-.9,3.85l-.74,2.36c-.54,1.73-1.12,2.94-1.73,3.62s-1.45,1.09-2.54,1.21-2.41-.05-3.95-.54l-1.9-.59-3.43,10.94-7.06-2.21,8.52-27.16ZM57.74,70.48l-2.17,6.91c.2.07.37.13.51.18.65.2,1.15.19,1.5-.05s.69-.86,1-1.87l.7-2.23c.29-.93.34-1.58.13-1.95s-.76-.7-1.68-.99Z"/>
      <path d="M69.37,69.03l5,1.57c3.33,1.04,5.55,1.88,6.65,2.51s1.85,1.59,2.27,2.88c.41,1.29.26,3.09-.47,5.41-.66,2.11-1.37,3.45-2.12,4.01s-1.92.67-3.51.34c1.29.78,2.08,1.54,2.38,2.28s.43,1.36.4,1.88-.4,1.88-1.08,4.07l-2.25,7.16-6.56-2.06,2.83-9.02c.46-1.45.62-2.39.5-2.81s-.67-.78-1.64-1.09l-3.84,12.24-7.06-2.21,8.52-27.16ZM74.98,75.89l-1.89,6.04c.79.25,1.38.31,1.77.2s.77-.78,1.14-1.97l.47-1.49c.27-.86.29-1.47.07-1.84s-.74-.68-1.56-.93Z"/>
      <path d="M99.02,95.79c-.86,2.73-1.53,4.64-2.01,5.73-.48,1.09-1.21,2.01-2.18,2.73s-2.11,1.16-3.42,1.3-2.73-.03-4.26-.51-2.68-1.1-3.69-1.94-1.72-1.84-2.12-3.01-.5-2.34-.28-3.5.76-3.14,1.64-5.93l1.46-4.65c.86-2.73,1.53-4.64,2.01-5.73s1.21-2.01,2.18-2.73,2.11-1.16,3.42-1.3,2.73.03,4.26.51,2.68,1.1,3.69,1.94c1.01.84,1.72,1.84,2.12,3.01s.5,2.34.28,3.5-.76,3.14-1.64,5.93l-1.46,4.65ZM94.76,84.65c.4-1.26.58-2.09.55-2.49s-.26-.66-.7-.8c-.37-.12-.7-.06-.98.16s-.65,1.03-1.09,2.43l-3.98,12.68c-.49,1.58-.74,2.57-.72,2.98s.25.69.72.83.85.03,1.12-.35.65-1.37,1.15-2.97l3.91-12.48Z"/>
      <path d="M119.42,97.71l-7.06-2.21,1.48-4.72c.43-1.37.62-2.25.58-2.64s-.32-.66-.84-.82c-.58-.18-1.02-.09-1.3.27s-.65,1.23-1.08,2.61l-3.96,12.61c-.41,1.32-.61,2.21-.58,2.66s.32.76.87.94.93.07,1.22-.28.67-1.27,1.13-2.77l1.07-3.41,7.06,2.21-.33,1.06c-.88,2.81-1.71,4.74-2.47,5.79-.77,1.05-1.97,1.81-3.6,2.27-1.64.46-3.45.38-5.44-.25-2.07-.65-3.66-1.56-4.76-2.73s-1.67-2.49-1.69-3.95c-.02-1.46.39-3.52,1.22-6.18l2.49-7.93c.61-1.96,1.14-3.4,1.58-4.34s1.14-1.75,2.09-2.45c.95-.7,2.1-1.12,3.44-1.27s2.78.02,4.31.5c2.08.65,3.67,1.59,4.77,2.82,1.1,1.23,1.68,2.51,1.72,3.84.05,1.33-.32,3.27-1.12,5.8l-.81,2.58Z"/>
      <path d="M125.66,86.68l11.78,3.69-1.7,5.43-4.71-1.48-1.61,5.15,4.41,1.38-1.62,5.17-4.41-1.38-1.87,5.97,5.18,1.63-1.7,5.43-12.25-3.84,8.52-27.16Z"/>
      <path d="M152.32,104.06l-6.56-2.06.63-2.01c.29-.94.4-1.56.31-1.87s-.33-.53-.72-.65c-.42-.13-.8-.06-1.13.22s-.6.77-.82,1.48c-.28.91-.38,1.63-.27,2.16.09.53.58,1.29,1.47,2.29,2.56,2.85,4.06,5,4.5,6.46s.24,3.51-.59,6.17c-.61,1.93-1.28,3.29-2.02,4.06s-1.86,1.27-3.35,1.48c-1.49.21-3.1.05-4.82-.49-1.89-.59-3.39-1.46-4.5-2.59s-1.7-2.32-1.77-3.56.22-2.87.86-4.91l.56-1.78,6.56,2.06-1.04,3.3c-.32,1.02-.43,1.7-.34,2.05s.37.6.84.74.88.07,1.22-.22.63-.81.86-1.54c.5-1.6.61-2.71.33-3.34-.29-.63-1.14-1.8-2.53-3.5-1.39-1.71-2.29-2.92-2.69-3.63s-.65-1.58-.73-2.62.1-2.29.55-3.73c.65-2.08,1.39-3.52,2.23-4.31s1.93-1.28,3.28-1.45,2.87,0,4.55.53c1.83.58,3.3,1.36,4.41,2.36,1.11,1,1.73,2.01,1.86,3.04s-.13,2.63-.81,4.78l-.34,1.07Z"/>
      <path d="M168.85,117.68c-.86,2.73-1.53,4.64-2.01,5.73s-1.21,2.01-2.18,2.73-2.11,1.16-3.42,1.3-2.73-.03-4.26-.51-2.68-1.1-3.69-1.94-1.72-1.84-2.12-3.01-.5-2.34-.28-3.5.76-3.14,1.64-5.93l1.46-4.65c.86-2.73,1.53-4.64,2.01-5.73s1.21-2.01,2.18-2.73,2.11-1.16,3.42-1.3,2.73.03,4.26.51,2.68,1.1,3.69,1.94,1.72,1.84,2.12,3.01.5,2.34.28,3.5-.76,3.14-1.64,5.93l-1.46,4.65ZM164.59,106.55c.4-1.26.58-2.09.55-2.49s-.26-.66-.7-.8c-.37-.12-.7-.06-.98.16s-.65,1.03-1.09,2.43l-3.98,12.68c-.49,1.58-.74,2.57-.72,2.98s.25.69.72.83.85.03,1.12-.35.65-1.37,1.15-2.97l3.91-12.48Z"/>
    </g>
    <g>
      <path d="M224.83,121.88l11.77,3.69-1.7,5.43-4.71-1.48-1.61,5.15,4.41,1.38-1.62,5.17-4.41-1.38-1.87,5.97,5.18,1.63-1.7,5.43-12.24-3.84,8.52-27.16Z"/>
      <path d="M254.87,131.3l-8.52,27.16-6.19-1.94.2-13.5-3.87,12.34-5.9-1.85,8.52-27.16,5.9,1.85.12,13.47,3.83-12.23,5.9,1.85Z"/>
      <path d="M263.76,134.09l7.11,2.23c1.92.6,3.35,1.22,4.29,1.84s1.58,1.31,1.92,2.04.48,1.53.41,2.4-.37,2.15-.9,3.85l-.74,2.36c-.54,1.73-1.12,2.94-1.73,3.62s-1.45,1.09-2.54,1.21-2.41-.05-3.95-.54l-1.9-.59-3.43,10.94-7.06-2.21,8.52-27.16ZM269.36,140.95l-2.17,6.91c.2.07.37.13.51.18.65.2,1.15.19,1.5-.05s.69-.86,1-1.87l.7-2.23c.29-.93.34-1.58.13-1.95s-.76-.7-1.68-.99Z"/>
      <path d="M281,139.49l5,1.57c3.33,1.04,5.55,1.88,6.65,2.51s1.85,1.59,2.27,2.88c.41,1.29.26,3.09-.47,5.41-.66,2.11-1.37,3.45-2.12,4.01s-1.92.67-3.51.34c1.29.78,2.08,1.54,2.38,2.28s.43,1.36.4,1.88-.4,1.88-1.08,4.07l-2.25,7.16-6.56-2.06,2.83-9.02c.46-1.45.62-2.39.5-2.81s-.67-.78-1.64-1.09l-3.84,12.24-7.06-2.21,8.52-27.16ZM286.61,146.35l-1.89,6.04c.79.25,1.38.31,1.77.2s.77-.78,1.14-1.97l.47-1.49c.27-.86.29-1.47.07-1.84s-.74-.68-1.56-.93Z"/>
      <path d="M310.65,166.25c-.86,2.73-1.53,4.64-2.01,5.73-.48,1.09-1.21,2.01-2.18,2.73s-2.11,1.16-3.42,1.3-2.73-.03-4.26-.51-2.68-1.1-3.69-1.94-1.72-1.84-2.12-3.01-.5-2.34-.28-3.5.76-3.14,1.64-5.93l1.46-4.65c.86-2.73,1.53-4.64,2.01-5.73s1.21-2.01,2.18-2.73,2.11-1.16,3.42-1.3,2.73.03,4.26.51,2.68,1.1,3.69,1.94c1.01.84,1.72,1.84,2.12,3.01s.5,2.34.28,3.5-.76,3.14-1.64,5.93l-1.46,4.65ZM306.39,155.12c.4-1.26.58-2.09.55-2.49s-.26-.66-.7-.8c-.37-.12-.7-.06-.98.16s-.65,1.03-1.09,2.43l-3.98,12.68c-.49,1.58-.74,2.57-.72,2.98s.25.69.72.83.85.03,1.12-.35.65-1.37,1.15-2.97l3.91-12.48Z"/>
      <path d="M331.05,168.17l-7.06-2.21,1.48-4.72c.43-1.37.62-2.25.58-2.64s-.32-.66-.84-.82c-.58-.18-1.02-.09-1.3.27s-.65,1.23-1.08,2.61l-3.96,12.61c-.41,1.32-.61,2.21-.58,2.66s.32.76.87.94.93.07,1.22-.28.67-1.27,1.13-2.77l1.07-3.41,7.06,2.21-.33,1.06c-.88,2.81-1.71,4.74-2.47,5.79-.77,1.05-1.97,1.81-3.6,2.27-1.64.46-3.45.38-5.44-.25-2.07-.65-3.66-1.56-4.76-2.73s-1.67-2.49-1.69-3.95c-.02-1.46.39-3.52,1.22-6.18l2.49-7.93c.61-1.96,1.14-3.4,1.58-4.34s1.14-1.75,2.09-2.45c.95-.7,2.1-1.12,3.44-1.27s2.78.02,4.31.5c2.08.65,3.67,1.59,4.77,2.82,1.1,1.23,1.68,2.51,1.72,3.84.05,1.33-.32,3.27-1.12,5.8l-.81,2.58Z"/>
      <path d="M337.29,157.14l11.78,3.69-1.7,5.43-4.71-1.48-1.61,5.15,4.41,1.38-1.62,5.17-4.41-1.38-1.87,5.97,5.18,1.63-1.7,5.43-12.25-3.84,8.52-27.16Z"/>
      <path d="M363.95,174.53l-6.56-2.06.63-2.01c.29-.94.4-1.56.31-1.87s-.33-.53-.72-.65c-.42-.13-.8-.06-1.13.22s-.6.77-.82,1.48c-.28.91-.38,1.63-.27,2.16.09.53.58,1.29,1.47,2.29,2.56,2.85,4.06,5,4.5,6.46s.24,3.51-.59,6.17c-.61,1.93-1.28,3.29-2.02,4.06s-1.86,1.27-3.35,1.48-3.1.05-4.82-.49c-1.89-.59-3.39-1.46-4.5-2.59-1.11-1.13-1.7-2.32-1.77-3.56s.22-2.87.86-4.91l.56-1.78,6.56,2.06-1.04,3.3c-.32,1.02-.43,1.7-.34,2.05s.37.6.84.74.88.07,1.22-.22.63-.81.86-1.54c.5-1.6.61-2.71.33-3.34-.29-.63-1.14-1.8-2.53-3.5-1.39-1.71-2.29-2.92-2.69-3.63s-.65-1.58-.73-2.62.1-2.29.55-3.73c.65-2.08,1.39-3.52,2.23-4.31s1.93-1.28,3.28-1.45,2.87,0,4.55.53c1.83.58,3.3,1.36,4.41,2.36s1.73,2.01,1.86,3.04-.13,2.63-.81,4.78l-.34,1.07Z"/>
      <path d="M380.48,188.15c-.86,2.73-1.53,4.64-2.01,5.73s-1.21,2.01-2.18,2.73-2.11,1.16-3.42,1.3-2.73-.03-4.26-.51-2.68-1.1-3.69-1.94-1.72-1.84-2.12-3.01-.5-2.34-.28-3.5.76-3.14,1.64-5.93l1.46-4.65c.86-2.73,1.53-4.64,2.01-5.73s1.21-2.01,2.18-2.73,2.11-1.16,3.42-1.3c1.31-.14,2.73.03,4.26.51s2.68,1.1,3.69,1.94,1.72,1.84,2.12,3.01.5,2.34.28,3.5-.76,3.14-1.64,5.93l-1.46,4.65ZM376.21,177.01c.4-1.26.58-2.09.55-2.49s-.26-.66-.7-.8c-.37-.12-.7-.06-.98.16s-.65,1.03-1.09,2.43l-3.98,12.68c-.49,1.58-.74,2.57-.72,2.98s.25.69.72.83.85.03,1.12-.35.65-1.37,1.15-2.97l3.91-12.48Z"/>
    </g>
  </g>
  <g class="st3">
    <g>
      <path class="st0" d="M300,23.54C200,90.29,100,157.04,0,223.79v77.18c100-66.24,200-132.48,300-198.72V23.54Z"/>
      <g>
        <path d="M-26.59,261.82l10.33-6.76,3.12,4.77-4.13,2.7,2.95,4.52,3.87-2.53,2.96,4.53-3.87,2.53,3.43,5.24,4.55-2.97,3.12,4.77-10.74,7.03-15.58-23.81Z"/>
        <path d="M-.25,244.59l15.58,23.81-5.43,3.55-10.3-8.72,7.08,10.83-5.18,3.39-15.58-23.81,5.18-3.39,10.49,8.45-7.02-10.72,5.18-3.39Z"/>
        <path d="M7.55,239.49l6.24-4.08c1.69-1.1,3.07-1.82,4.15-2.15s2.01-.39,2.8-.19,1.49.61,2.12,1.21,1.43,1.65,2.4,3.14l1.36,2.07c.99,1.52,1.56,2.73,1.7,3.63s-.08,1.81-.68,2.73-1.57,1.82-2.92,2.71l-1.66,1.09,6.28,9.59-6.19,4.05-15.58-23.81ZM16.41,239.51l3.97,6.06c.18-.11.34-.2.47-.28.57-.37.87-.77.91-1.19s-.23-1.08-.81-1.96l-1.28-1.96c-.53-.81-1.01-1.26-1.42-1.34s-1.03.15-1.83.67Z"/>
        <path d="M22.67,229.59l4.38-2.87c2.92-1.91,4.97-3.09,6.16-3.55,1.18-.45,2.4-.43,3.66.07,1.26.5,2.55,1.76,3.88,3.79,1.21,1.85,1.8,3.25,1.75,4.19s-.7,1.91-1.97,2.93c1.42-.5,2.51-.63,3.27-.4s1.32.53,1.71.89,1.2,1.5,2.46,3.42l4.11,6.28-5.75,3.76-5.18-7.91c-.83-1.27-1.45-2-1.85-2.17s-1.03.02-1.88.58l7.03,10.74-6.19,4.05-15.58-23.81ZM31.53,229.62l3.46,5.3c.7-.46,1.12-.87,1.28-1.24s-.11-1.09-.8-2.14l-.86-1.31c-.49-.76-.95-1.16-1.38-1.22s-.99.15-1.71.61Z"/>
        <path d="M62.17,223.66c1.57,2.39,2.62,4.12,3.16,5.19.54,1.07.78,2.21.73,3.42s-.44,2.37-1.16,3.47-1.75,2.09-3.1,2.97-2.56,1.37-3.84,1.62c-1.29.25-2.51.16-3.68-.27s-2.12-1.1-2.88-2-1.94-2.58-3.55-5.03l-2.67-4.07c-1.57-2.39-2.62-4.12-3.16-5.19s-.78-2.21-.73-3.42.44-2.37,1.16-3.47,1.75-2.09,3.1-2.97,2.56-1.37,3.84-1.62c1.29-.25,2.51-.16,3.68.27s2.12,1.1,2.88,2,1.94,2.58,3.55,5.03l2.67,4.07ZM50.86,219.89c-.73-1.11-1.25-1.78-1.57-2.01s-.68-.22-1.06.03c-.32.21-.49.5-.5.86s.39,1.16,1.19,2.38l7.28,11.12c.9,1.38,1.52,2.2,1.84,2.45s.69.24,1.1-.03.57-.64.44-1.09-.65-1.38-1.57-2.78l-7.16-10.94Z"/>
        <path d="M76.6,209.12l-6.19,4.05-2.71-4.14c-.79-1.2-1.35-1.91-1.67-2.12s-.72-.17-1.17.12c-.51.33-.71.73-.61,1.18s.54,1.28,1.33,2.49l7.24,11.06c.76,1.16,1.32,1.87,1.69,2.13s.79.24,1.27-.08.65-.68.56-1.12-.56-1.32-1.42-2.63l-1.96-2.99,6.19-4.05.61.93c1.61,2.47,2.58,4.33,2.91,5.59.33,1.26.15,2.67-.54,4.22-.68,1.56-1.9,2.9-3.64,4.05s-3.52,1.84-5.13,1.95-2.98-.29-4.12-1.2c-1.14-.91-2.48-2.53-4-4.87l-4.55-6.96c-1.12-1.72-1.91-3.04-2.35-3.98s-.63-1.99-.57-3.17c.06-1.18.46-2.33,1.2-3.46s1.78-2.14,3.12-3.02c1.82-1.19,3.56-1.83,5.21-1.9,1.65-.07,3,.3,4.06,1.11,1.06.81,2.32,2.32,3.77,4.55l1.48,2.26Z"/>
        <path d="M72.04,197.29l10.33-6.76,3.12,4.77-4.13,2.7,2.95,4.52,3.87-2.53,2.96,4.53-3.87,2.53,3.43,5.24,4.55-2.97,3.12,4.77-10.74,7.03-15.58-23.81Z"/>
        <path d="M102.39,187.73l-5.75,3.76-1.15-1.77c-.54-.82-.96-1.3-1.25-1.43s-.61-.08-.96.14c-.37.24-.56.58-.55,1.01s.21.95.62,1.57c.52.79,1.02,1.32,1.5,1.58.47.27,1.37.37,2.7.31,3.83-.17,6.44.04,7.84.62s2.87,2.04,4.39,4.37c1.11,1.7,1.73,3.08,1.86,4.14s-.2,2.24-.98,3.53-1.93,2.43-3.44,3.41c-1.66,1.08-3.28,1.7-4.86,1.84-1.58.14-2.87-.16-3.87-.89s-2.08-1.99-3.25-3.78l-1.02-1.56,5.75-3.76,1.9,2.9c.58.89,1.04,1.41,1.37,1.56s.7.09,1.11-.18.61-.63.6-1.09-.22-1-.64-1.64c-.92-1.4-1.71-2.19-2.37-2.38-.67-.17-2.11-.26-4.31-.27-2.21-.01-3.71-.09-4.51-.22s-1.63-.5-2.49-1.1-1.71-1.53-2.53-2.8c-1.19-1.82-1.83-3.31-1.92-4.46s.24-2.3.96-3.46,1.83-2.21,3.3-3.18c1.61-1.05,3.15-1.69,4.62-1.91,1.47-.22,2.65-.06,3.54.49s1.95,1.77,3.18,3.66l.62.94Z"/>
        <path d="M123.4,183.6c1.57,2.39,2.62,4.12,3.16,5.19s.78,2.21.73,3.42-.44,2.37-1.16,3.47-1.75,2.09-3.1,2.97-2.56,1.37-3.84,1.62-2.51.16-3.68-.27-2.12-1.1-2.88-2-1.94-2.58-3.55-5.03l-2.67-4.07c-1.57-2.39-2.62-4.12-3.16-5.19s-.78-2.21-.73-3.42.44-2.37,1.16-3.47c.72-1.1,1.75-2.09,3.1-2.97s2.56-1.37,3.84-1.62,2.51-.16,3.68.27c1.16.43,2.12,1.1,2.88,2s1.94,2.58,3.55,5.03l2.67,4.07ZM112.09,179.82c-.73-1.11-1.25-1.78-1.57-2.01s-.68-.22-1.06.03c-.32.21-.49.5-.5.86s.39,1.16,1.19,2.38l7.28,11.12c.9,1.38,1.52,2.2,1.84,2.45s.69.24,1.1-.03.57-.64.44-1.09-.65-1.38-1.57-2.78l-7.16-10.94Z"/>
      </g>
      <g>
        <path d="M139.37,153.36l10.33-6.76,3.12,4.77-4.13,2.7,2.95,4.52,3.87-2.53,2.96,4.53-3.87,2.53,3.43,5.24,4.55-2.97,3.12,4.77-10.74,7.03-15.58-23.81Z"/>
        <path d="M165.72,136.13l15.58,23.81-5.43,3.55-10.3-8.72,7.08,10.83-5.18,3.39-15.58-23.81,5.18-3.39,10.49,8.45-7.02-10.72,5.18-3.39Z"/>
        <path d="M173.51,131.03l6.24-4.08c1.69-1.1,3.07-1.82,4.15-2.15s2.01-.39,2.8-.19,1.49.61,2.12,1.21,1.43,1.65,2.4,3.14l1.36,2.07c.99,1.52,1.56,2.73,1.7,3.63s-.08,1.81-.68,2.73-1.57,1.82-2.92,2.71l-1.66,1.09,6.28,9.59-6.19,4.05-15.58-23.81ZM182.37,131.05l3.97,6.06c.18-.11.34-.2.47-.28.57-.37.87-.77.91-1.19s-.23-1.08-.81-1.96l-1.28-1.96c-.53-.81-1.01-1.26-1.42-1.34s-1.03.15-1.83.67Z"/>
        <path d="M188.63,121.13l4.38-2.87c2.92-1.91,4.97-3.09,6.16-3.55,1.18-.45,2.4-.43,3.66.07,1.26.5,2.55,1.76,3.88,3.79,1.21,1.85,1.8,3.25,1.75,4.19s-.7,1.91-1.97,2.93c1.42-.5,2.51-.63,3.27-.4s1.32.53,1.71.89,1.2,1.5,2.46,3.42l4.11,6.28-5.75,3.76-5.18-7.91c-.83-1.27-1.45-2-1.85-2.17s-1.03.02-1.88.58l7.03,10.74-6.19,4.05-15.58-23.81ZM197.49,121.15l3.46,5.3c.7-.46,1.12-.87,1.28-1.24s-.11-1.09-.8-2.14l-.86-1.31c-.49-.76-.95-1.16-1.38-1.22s-.99.15-1.71.61Z"/>
        <path d="M228.13,115.2c1.57,2.39,2.62,4.12,3.16,5.19s.78,2.21.73,3.42-.44,2.37-1.16,3.47-1.75,2.09-3.1,2.97-2.56,1.37-3.84,1.62c-1.29.25-2.51.16-3.68-.27s-2.12-1.1-2.88-2-1.94-2.58-3.55-5.03l-2.67-4.07c-1.57-2.39-2.62-4.12-3.16-5.19s-.78-2.21-.73-3.42.44-2.37,1.16-3.47,1.75-2.09,3.1-2.97,2.56-1.37,3.84-1.62c1.29-.25,2.51-.16,3.68.27s2.12,1.1,2.88,2c.76.9,1.94,2.58,3.55,5.03l2.67,4.07ZM216.82,111.43c-.73-1.11-1.25-1.78-1.57-2.01s-.68-.22-1.06.03c-.32.21-.49.5-.5.86s.39,1.16,1.19,2.38l7.28,11.12c.9,1.38,1.52,2.2,1.84,2.45s.69.24,1.1-.03.57-.64.44-1.09-.65-1.38-1.57-2.78l-7.16-10.94Z"/>
        <path d="M242.56,100.66l-6.19,4.05-2.71-4.14c-.79-1.2-1.35-1.91-1.67-2.12s-.72-.17-1.17.12c-.51.33-.71.73-.61,1.18s.54,1.28,1.33,2.49l7.24,11.06c.76,1.16,1.32,1.87,1.69,2.13s.79.24,1.27-.08.65-.68.56-1.12-.56-1.32-1.42-2.63l-1.96-2.99,6.19-4.05.61.93c1.61,2.47,2.58,4.33,2.91,5.59.33,1.26.15,2.67-.54,4.22-.68,1.56-1.9,2.9-3.64,4.05s-3.52,1.84-5.13,1.95-2.98-.29-4.12-1.2c-1.14-.91-2.48-2.53-4-4.87l-4.55-6.96c-1.12-1.72-1.91-3.04-2.35-3.98s-.63-1.99-.57-3.17c.06-1.18.46-2.33,1.2-3.46s1.78-2.14,3.12-3.02c1.82-1.19,3.56-1.83,5.21-1.9,1.65-.07,3,.3,4.06,1.11,1.06.81,2.32,2.32,3.77,4.55l1.48,2.26Z"/>
        <path d="M238,88.83l10.33-6.76,3.12,4.77-4.13,2.7,2.95,4.52,3.87-2.53,2.96,4.53-3.87,2.53,3.43,5.24,4.55-2.97,3.12,4.77-10.74,7.03-15.58-23.81Z"/>
        <path d="M268.35,79.26l-5.75,3.76-1.15-1.77c-.54-.82-.96-1.3-1.25-1.43s-.61-.08-.96.14c-.37.24-.56.58-.55,1.01s.21.95.62,1.57c.52.79,1.02,1.32,1.5,1.58.47.27,1.37.37,2.7.31,3.83-.17,6.44.04,7.84.62s2.87,2.04,4.39,4.37c1.11,1.7,1.73,3.08,1.86,4.14s-.2,2.24-.98,3.53-1.93,2.43-3.44,3.41c-1.66,1.08-3.28,1.7-4.86,1.84-1.58.14-2.87-.16-3.87-.89s-2.08-1.99-3.25-3.78l-1.02-1.56,5.75-3.76,1.9,2.9c.58.89,1.04,1.41,1.37,1.56s.7.09,1.11-.18.61-.63.6-1.09-.22-1-.64-1.64c-.92-1.4-1.71-2.19-2.37-2.38-.67-.17-2.11-.26-4.31-.27-2.21-.01-3.71-.09-4.51-.22s-1.63-.5-2.49-1.1-1.71-1.53-2.53-2.8c-1.19-1.82-1.83-3.31-1.92-4.46s.24-2.3.96-3.46,1.83-2.21,3.3-3.18c1.61-1.05,3.15-1.69,4.62-1.91,1.47-.22,2.65-.06,3.54.49s1.95,1.77,3.18,3.66l.62.94Z"/>
        <path d="M289.37,75.14c1.57,2.39,2.62,4.12,3.16,5.19s.78,2.21.73,3.42-.44,2.37-1.16,3.47-1.75,2.09-3.1,2.97-2.56,1.37-3.84,1.62-2.51.16-3.68-.27-2.12-1.1-2.88-2c-.76-.9-1.94-2.58-3.55-5.03l-2.67-4.07c-1.57-2.39-2.62-4.12-3.16-5.19s-.78-2.21-.73-3.42.44-2.37,1.16-3.47,1.75-2.09,3.1-2.97,2.56-1.37,3.84-1.62,2.51-.16,3.68.27c1.16.43,2.12,1.1,2.88,2s1.94,2.58,3.55,5.03l2.67,4.07ZM278.05,71.36c-.73-1.11-1.25-1.78-1.57-2.01s-.68-.22-1.06.03c-.32.21-.49.5-.5.86s.39,1.16,1.19,2.38l7.28,11.12c.9,1.38,1.52,2.2,1.84,2.45s.69.24,1.1-.03.57-.64.44-1.09-.65-1.38-1.57-2.78l-7.16-10.94Z"/>
      </g>
    </g>
    <circle cx="135.57" cy="175.02" r="5.07"/>
    <circle cx="300" cy="64.12" r="5.07"/>
  </g>
</svg>