<?xml version="1.0" encoding="UTF-8"?>
<svg id="Capa_1" xmlns="http://www.w3.org/2000/svg" version="1.1" viewBox="0 0 344.89 348.28">
  <!-- Generator: Adobe Illustrator 29.8.3, SVG Export Plug-In . SVG Version: 2.1.1 Build 3)  -->
  <defs>
    <style>
      .st0 {
        stroke-width: 4.08px;
      }

      .st0, .st1, .st2 {
        stroke: #000;
      }

      .st0, .st1, .st3 {
        stroke-miterlimit: 10;
      }

      .st4, .st5, .st6 {
        fill: #384695;
      }

      .st7 {
        fill: #b3c6d4;
      }

      .st8 {
        fill: #b95419;
      }

      .st9 {
        fill: #893c17;
      }

      .st1 {
        stroke-width: 7.55px;
      }

      .st5, .st2, .st6 {
        stroke-linecap: round;
        stroke-linejoin: round;
      }

      .st5, .st6, .st3 {
        stroke: #384695;
      }

      .st2, .st6 {
        stroke-width: 5px;
      }

      .st10 {
        fill: #fcc956;
      }

      .st3 {
        fill: #fff;
      }

      .st11 {
        fill: #e43165;
      }

      .st12 {
        fill: #1e7332;
      }
    </style>
  </defs>
  <g>
    <circle cx="97.53" cy="240.7" r="5.78"/>
    <path class="st0" d="M97.32,257.32c1.42-.12,2.76,1.27,3.17,3.34.05.25.06.51.06.76v16.78c0,.51-.08,1.01-.25,1.45-.62,1.6-1.82,2.56-3.06,2.42-1.08-.13-2.04-1.07-2.56-2.47-.16-.42-.22-.9-.22-1.38v-16.94c0-.3.02-.6.09-.88.42-1.75,1.52-2.99,2.76-3.09Z"/>
  </g>
  <path class="st4" d="M318.98,243.59c.07,6.25-5.21,10.58-10.46,10.6-6.46.02-10.83-5.49-10.75-10.76.08-5.46,4.65-10.62,10.72-10.5,5.94.11,10.52,4.69,10.5,10.66ZM317.21,243.6c0-4.98-3.87-8.86-8.82-8.88-4.89-.01-8.86,3.97-8.84,8.88.02,4.84,3.99,8.75,8.89,8.73,4.9-.01,8.78-3.87,8.77-8.74Z"/>
  <path class="st3" d="M317.21,243.6c0,4.86-3.86,8.73-8.77,8.74-4.9.01-8.88-3.89-8.89-8.73-.02-4.91,3.95-8.89,8.84-8.88,4.95.01,8.81,3.9,8.82,8.88ZM303.92,237.41c0,.52,0,.79,0,1.06,0,2.79,0,5.58,0,8.38,0,2.31,0,2.29,2.34,2.27.6,0,.79-.2.77-.79-.04-1.26-.01-2.52-.01-3.75.73-.24,1.13-.09,1.4.57.48,1.14,1.03,2.26,1.59,3.37.11.22.34.54.53.55.98.06,1.96.03,3.09.03-.88-1.77-1.69-3.41-2.5-5.04.14-.09.2-.14.27-.17,1.65-.76,2.31-1.78,2.18-3.36-.11-1.35-.99-2.43-2.7-2.66-2.25-.3-4.54-.3-6.96-.43Z"/>
  <path class="st4" d="M303.92,237.41c2.42.14,4.71.13,6.96.43,1.71.23,2.59,1.31,2.7,2.66.13,1.58-.53,2.6-2.18,3.36-.07.03-.13.08-.27.17.81,1.64,1.62,3.28,2.5,5.04-1.13,0-2.11.03-3.09-.03-.19-.01-.42-.33-.53-.55-.55-1.11-1.11-2.23-1.59-3.37-.28-.66-.68-.81-1.4-.57,0,1.23-.03,2.49.01,3.75.02.6-.17.79-.77.79-2.34.03-2.34.04-2.34-2.27,0-2.79,0-5.58,0-8.38,0-.27,0-.55,0-1.06ZM307.02,239.36c0,.64,0,1.09,0,1.54,0,1.97.2,2.12,2.16,1.66.02,0,.05,0,.07-.01.75-.2,1.19-.75,1.19-1.47,0-.76-.38-1.33-1.14-1.49-.7-.15-1.43-.15-2.28-.23Z"/>
  <path class="st3" d="M307.02,239.36c.85.08,1.58.09,2.28.23.76.16,1.14.73,1.14,1.49,0,.72-.44,1.27-1.19,1.47-.02,0-.05,0-.07.01-1.95.46-2.16.3-2.16-1.66,0-.45,0-.9,0-1.54Z"/>
  <path class="st4" d="M143.22,204.49c.03,2.26-1.88,3.82-3.78,3.83-2.33,0-3.91-1.98-3.88-3.89.03-1.97,1.68-3.83,3.87-3.79,2.15.04,3.8,1.69,3.79,3.85ZM142.58,204.49c0-1.8-1.4-3.2-3.19-3.21-1.77,0-3.2,1.43-3.19,3.21,0,1.75,1.44,3.16,3.21,3.15,1.77,0,3.17-1.4,3.17-3.16Z"/>
  <path class="st4" d="M137.78,202.25c.87.05,1.7.05,2.51.16.62.08.93.47.97.96.05.57-.19.94-.79,1.21-.02.01-.05.03-.1.06.29.59.59,1.18.9,1.82-.41,0-.76.01-1.12,0-.07,0-.15-.12-.19-.2-.2-.4-.4-.8-.57-1.22-.1-.24-.24-.29-.51-.21,0,.44-.01.9,0,1.36,0,.22-.06.28-.28.29-.85,0-.85.02-.85-.82,0-1.01,0-2.02,0-3.03,0-.1,0-.2,0-.38ZM138.9,202.96c0,.23,0,.4,0,.56,0,.71.07.77.78.6,0,0,.02,0,.03,0,.27-.07.43-.27.43-.53,0-.27-.14-.48-.41-.54-.25-.05-.52-.06-.82-.08Z"/>
  <path class="st1" d="M114.2,257.46c0-2.13-.03-4.01-.1-5.78-.06-1.42,1.07-2.61,2.49-2.61h0c1.32,0,2.41,1.03,2.49,2.34l.17,2.78h.13c1.54-2.94,5.12-5.82,10.24-5.82,4.29,0,10.94,2.56,10.94,13.18v16c0,1.38-1.12,2.5-2.5,2.5h-.64c-1.38,0-2.5-1.12-2.5-2.5v-15.36c0-4.99-1.86-9.15-7.17-9.15-3.71,0-6.59,2.62-7.55,5.76-.26.7-.38,1.66-.38,2.62v16.13c0,1.38-1.12,2.5-2.5,2.5h-.64c-1.38,0-2.5-1.12-2.5-2.5v-20.09Z"/>
  <path class="st2" d="M38.05,279.46l-12.09-45.55c-.25-.95.47-1.89,1.45-1.89h3.44c.7,0,1.31.48,1.47,1.16l7.12,30.67c.26,1.07.5,2.15.73,3.21.34,1.56,2.55,1.59,2.93.04.29-1.18.48-1.95.58-2.3l8.93-31.7c.18-.65.77-1.1,1.45-1.1h5.47c.67,0,1.26.45,1.45,1.09l6.65,23.48c.97,3.39,1.79,6.67,2.46,9.84.33,1.58,2.56,1.62,2.94.05.25-1.05.52-2.14.8-3.26l7.34-30.06c.16-.67.77-1.15,1.46-1.15h3.31c.99,0,1.71.94,1.45,1.9l-12.49,45.55c-.18.65-.77,1.11-1.45,1.11h-3.9c-.68,0-1.27-.45-1.45-1.1l-9.93-35.9s-.02-.06-.03-.09c-.41-1.47-2.49-1.46-2.9,0,0,.03-.02.06-.02.08l-10,35.9c-.18.65-.77,1.1-1.45,1.1h-4.26c-.68,0-1.28-.46-1.45-1.12Z"/>
  <path class="st6" d="M160.9,280.58h-3.51c-2.02,0-3.52-1.86-3.11-3.83l8.84-42.2c.31-1.47,1.61-2.53,3.11-2.53h18.98c3.71,0,6.6.38,8.66,1.14,2.06.76,3.73,2.16,5,4.19,1.27,2.03,1.9,4.49,1.9,7.39,0,4.13-1.24,7.54-3.71,10.22-1.6,1.74-3.74,3.05-6.41,3.93-2.02.67-2.86,3.02-1.7,4.81.16.25.33.51.49.78,1.73,2.95,3.61,6.84,5.65,11.67.88,2.1-.65,4.42-2.93,4.42h-3.73c-1.34,0-2.53-.83-2.99-2.09-.96-2.66-2.41-6.23-4.36-10.73-1.37-3.14-2.83-5.24-4.37-6.33-.95-.64-2.61-.96-4.97-.96h-1.49c-1.5,0-2.8,1.06-3.11,2.53l-3.15,15.05c-.31,1.47-1.61,2.53-3.11,2.53ZM170.01,249.35c-.41,1.97,1.1,3.83,3.11,3.83h1.39c5.37,0,8.93-.32,10.68-.96,1.76-.64,3.13-1.64,4.12-3.01.99-1.37,1.49-2.8,1.49-4.31,0-1.77-.72-3.09-2.15-3.98-.88-.53-2.79-.8-5.73-.8h-8.41c-1.51,0-2.81,1.06-3.11,2.53l-1.39,6.69Z"/>
  <path class="st6" d="M226.35,269.84h-13.86c-1.36,0-2.61.74-3.25,1.94l-3.73,6.86c-.65,1.19-1.9,1.94-3.25,1.94h-1.72c-2.84,0-4.62-3.06-3.22-5.53l23.27-41.16c.66-1.16,1.89-1.88,3.22-1.88h5.79c1.82,0,3.36,1.32,3.65,3.11l6.68,41.16c.37,2.25-1.37,4.3-3.65,4.3h-1.94c-1.83,0-3.39-1.34-3.66-3.15l-.67-4.43c-.27-1.81-1.83-3.15-3.66-3.15ZM227.7,257.53l-.72-5.01c-.5-3.45-5.05-4.36-6.84-1.38l-3.01,5.01c-1.48,2.47.3,5.61,3.18,5.61h3.73c2.26,0,3.99-2,3.66-4.23Z"/>
  <path class="st6" d="M249.12,280.58h-3.51c-2.02,0-3.52-1.86-3.11-3.83l8.84-42.2c.31-1.47,1.61-2.53,3.11-2.53h18.98c3.71,0,6.6.38,8.66,1.14s3.73,2.16,5,4.19c1.27,2.03,1.9,4.49,1.9,7.39,0,4.13-1.24,7.54-3.71,10.22-1.6,1.74-3.74,3.05-6.41,3.93-2.02.67-2.86,3.02-1.7,4.81.16.25.33.51.49.78,1.73,2.95,3.61,6.84,5.65,11.67.88,2.1-.65,4.42-2.93,4.42h-3.73c-1.34,0-2.53-.83-2.99-2.09-.96-2.66-2.41-6.23-4.36-10.73-1.37-3.14-2.83-5.24-4.37-6.33-.95-.64-2.61-.96-4.97-.96h-1.49c-1.5,0-2.8,1.06-3.11,2.53l-3.15,15.05c-.31,1.47-1.61,2.53-3.11,2.53ZM258.22,249.35c-.41,1.97,1.1,3.83,3.11,3.83h1.39c5.37,0,8.93-.32,10.68-.96,1.76-.64,3.13-1.64,4.12-3.01.99-1.37,1.49-2.8,1.49-4.31,0-1.77-.72-3.09-2.15-3.98-.88-.53-2.79-.8-5.73-.8h-8.41c-1.51,0-2.81,1.06-3.11,2.53l-1.39,6.69Z"/>
  <path class="st5" d="M64.21,220.67h-.78c-.98,0-1.7-.9-1.5-1.85l3.34-15.96c.15-.71.78-1.22,1.5-1.22h7.21c1.45,0,2.59.15,3.4.45s1.46.85,1.96,1.64c.5.8.75,1.76.75,2.9,0,1.62-.48,2.95-1.45,4.01-.57.62-1.31,1.1-2.22,1.44s-1.29,1.43-.78,2.27c0,0,0,.01.01.02.63,1.07,1.31,2.46,2.04,4.16.44,1.01-.31,2.15-1.41,2.15h-.82c-.64,0-1.22-.4-1.44-1-.37-1.02-.92-2.36-1.64-4.02-.54-1.23-1.11-2.06-1.71-2.48-.37-.25-1.02-.38-1.95-.38h-.35c-.73,0-1.36.51-1.5,1.22l-1.14,5.44c-.15.71-.78,1.22-1.5,1.22ZM68.09,208.08c-.2.95.53,1.85,1.51,1.85h.19c2.1,0,3.5-.13,4.19-.38.69-.25,1.23-.64,1.62-1.18.39-.54.58-1.1.58-1.69,0-.69-.28-1.21-.84-1.56-.35-.21-1.1-.31-2.25-.31h-3.06c-.73,0-1.36.51-1.51,1.22l-.42,2.04Z"/>
  <path class="st5" d="M79.95,218.75l3.32-15.86c.15-.74.8-1.26,1.56-1.26h.66c1.01,0,1.76.93,1.56,1.92l-2.51,12.02c-.21.99.55,1.92,1.56,1.92h5.77c1.01,0,1.76.93,1.56,1.92h0c-.15.74-.8,1.27-1.56,1.27h-10.36c-1.01,0-1.76-.93-1.56-1.92Z"/>
  <path class="st5" d="M105.44,216.46h-5.01c-.64,0-1.23.35-1.53.91l-1.3,2.39c-.31.56-.89.91-1.53.91h0c-1.34,0-2.17-1.44-1.52-2.6l8.79-15.55c.31-.55.89-.89,1.52-.89h1.85c.86,0,1.58.62,1.72,1.46l2.52,15.55c.17,1.06-.65,2.02-1.72,2.02h-.17c-.86,0-1.59-.63-1.72-1.48l-.19-1.24c-.13-.85-.86-1.48-1.72-1.48ZM106.17,211.3l-.12-.82c-.23-1.62-2.38-2.06-3.22-.65l-.49.82c-.7,1.16.14,2.64,1.5,2.64h.61c1.06,0,1.88-.94,1.73-1.99Z"/>
  <path class="st5" d="M111.96,218.95l3.39-16.19c.14-.66.72-1.13,1.4-1.13h5.35c1.41,0,2.4.04,2.96.13.94.13,1.73.39,2.38.78s1.14.91,1.48,1.56.51,1.37.51,2.16c0,1.06-.29,1.97-.88,2.75-.19.25-.41.47-.66.68-.69.57-.7,1.56-.07,2.19.1.1.2.21.29.33.55.69.82,1.47.82,2.33,0,1.14-.32,2.23-.97,3.25-.65,1.03-1.55,1.76-2.69,2.21-1.14.45-2.71.68-4.69.68h-7.22c-.91,0-1.58-.83-1.4-1.72ZM116.52,215.88c-.19.89.49,1.72,1.4,1.72h2.02c1.58,0,2.65-.1,3.19-.31.54-.2.97-.54,1.3-1.01s.49-.96.49-1.48c0-.63-.23-1.15-.7-1.56-.47-.41-1.25-.62-2.34-.62h-3.52c-.68,0-1.26.47-1.4,1.13l-.44,2.12ZM118.25,207.6c-.19.89.49,1.72,1.4,1.72h1.23c1.34,0,2.31-.1,2.9-.29.59-.19,1.03-.5,1.32-.94.29-.43.44-.9.44-1.39s-.14-.88-.42-1.19-.67-.52-1.18-.62c-.29-.05-.97-.08-2.06-.08h-1.88c-.67,0-1.26.47-1.4,1.13l-.35,1.65Z"/>
  <g>
    <path class="st11" d="M100.12,66.2c-2.64,0-4.96,1.77-5.59,4.31-1.06,4.29-1.93,9.73-1.85,16.02.07,5.55.87,10.4,1.85,14.32.63,2.54,2.93,4.32,5.58,4.33,45.19.11,90.39.21,135.58.32,2.46,0,4.64-1.54,5.46-3.84,1.3-3.67,2.52-8.52,2.75-14.26.27-7.02-1.03-12.9-2.43-17.12-.78-2.34-2.98-3.93-5.47-3.93l-135.87-.14Z"/>
    <path class="st4" d="M100.35,105.28c-2.64,0-4.96,1.79-5.59,4.35-1.06,4.34-1.93,9.83-1.85,16.19.07,5.61.87,10.51,1.85,14.47.63,2.57,2.93,4.36,5.58,4.37,45.19.11,90.39.22,135.58.32,2.46,0,4.64-1.56,5.46-3.88,1.3-3.71,2.52-8.6,2.75-14.41.27-7.09-1.03-13.03-2.43-17.3-.78-2.37-2.98-3.97-5.47-3.98l-135.87-.14Z"/>
    <path class="st12" d="M100.35,144.58c-2.64,0-4.96,1.79-5.59,4.35-1.06,4.34-1.93,9.83-1.85,16.19.07,5.61.87,10.51,1.85,14.47.63,2.57,2.93,4.36,5.58,4.37,45.19.11,90.39.22,135.58.32,2.46,0,4.64-1.56,5.46-3.88,1.3-3.71,2.52-8.6,2.75-14.41.27-7.09-1.03-13.03-2.43-17.3-.78-2.37-2.98-3.97-5.47-3.98l-135.87-.14Z"/>
    <path class="st10" d="M104.78,71.27c-.71-.03-1.33.48-1.45,1.18-.67,3.82-1.18,8.46-1.11,13.73.06,5.03.63,9.46,1.33,13.14.13.66.7,1.14,1.37,1.15,1.05.02,2.09.03,3.14.05.87.01,1.55-.75,1.43-1.62-.6-4.09-1.02-8.85-.98-14.13.03-4.33.37-8.29.85-11.79.11-.83-.52-1.57-1.35-1.6-1.07-.04-2.15-.08-3.22-.12Z"/>
    <path class="st10" d="M104.78,110.51c-.71-.03-1.33.48-1.45,1.18-.67,3.82-1.18,8.46-1.11,13.73.06,5.03.63,9.46,1.33,13.14.13.66.7,1.14,1.37,1.15,1.05.02,2.09.03,3.14.05.87.01,1.55-.75,1.43-1.62-.6-4.09-1.02-8.85-.98-14.13.03-4.33.37-8.29.85-11.79.11-.83-.52-1.57-1.35-1.6-1.07-.04-2.15-.08-3.22-.12Z"/>
    <path class="st10" d="M104.78,149.75c-.71-.03-1.33.48-1.45,1.18-.67,3.82-1.18,8.46-1.11,13.73.06,5.03.63,9.46,1.33,13.14.13.66.7,1.14,1.37,1.15,1.05.02,2.09.03,3.14.05.87.01,1.55-.75,1.43-1.62-.6-4.09-1.02-8.85-.98-14.13.03-4.33.37-8.29.85-11.79.11-.83-.52-1.57-1.35-1.6-1.07-.04-2.15-.08-3.22-.12Z"/>
    <path class="st8" d="M148.92,185.51l-.11-118.92c0-.18.15-.33.33-.33l38.39.04c.18,0,.33.15.33.33l.33,119.24c0,1-.81,1.8-1.81,1.8h-35.3c-.15,0-.85.04-1.45-.47-.75-.64-.72-1.58-.71-1.69Z"/>
    <circle class="st9" cx="168.55" cy="116.09" r="5.1"/>
    <path class="st7" d="M148.85,124.19v23.21c0,1.28,1.06,2.32,2.36,2.32h34.44c1.3,0,2.36-1.04,2.36-2.32v-23.74c0-1.28,1.06-2.32,2.36-2.32h.35c1.3,0,2.36,1.04,2.36,2.32v32.2c0,1.28-1.06,2.32-2.36,2.32h-44.22c-1.3,0-2.36-1.04-2.36-2.32v-31.67c0-1.28,1.05-2.32,2.35-2.32h0c1.3,0,2.36,1.04,2.36,2.32Z"/>
    <path class="st7" d="M168.36,137.41c1.26-.07,2.43.78,2.8,2.04.04.15.06.31.06.47v10.27c0,.31-.07.62-.22.89-.54.98-1.6,1.57-2.69,1.48-.95-.08-1.8-.66-2.25-1.51-.14-.26-.2-.55-.2-.84v-10.37c0-.18.02-.36.08-.54.37-1.07,1.34-1.83,2.43-1.89Z"/>
  </g>
</svg>